<?xml version="1.0" encoding="utf-8"?>
<!-- Generator: Adobe Illustrator 26.0.3, SVG Export Plug-In . SVG Version: 6.00 Build 0)  -->
<svg version="1.1" id="katman_1" xmlns="http://www.w3.org/2000/svg" xmlns:xlink="http://www.w3.org/1999/xlink" x="0px" y="0px"
	 viewBox="0 0 1458 1080" style="enable-background:new 0 0 1458 1080;" xml:space="preserve">
<style type="text/css">
	.st0{fill:url(#SVGID_1_);}
	
		.st1{clip-path:url(#SVGID_00000143594378087058206760000005459671874362754994_);fill:url(#SVGID_00000137854805540426422330000012450207944304939660_);}
	.st2{fill:#CF3434;}
	.st3{fill:#583636;}
	.st4{fill:url(#SVGID_00000038381644243466232490000006609949324524065979_);}
	.st5{fill:url(#SVGID_00000085973269149336591100000002275261110536265367_);}
	.st6{fill:url(#SVGID_00000152246566035084256270000014461322855721534897_);}
	.st7{fill:#C4796C;}
	.st8{fill:#DA3837;}
	.st9{fill:#522D2D;}
	.st10{fill:#4C2222;}
	.st11{fill:url(#SVGID_00000049222102175537913460000013147970648694281604_);}
	.st12{fill:url(#SVGID_00000044894134882418895610000008714079129856778667_);}
	.st13{fill:url(#SVGID_00000018203976906030462230000009408526303555700667_);}
	.st14{fill:#E23B3C;}
	.st15{fill:url(#SVGID_00000145040680035987616520000006753947265023617698_);}
	.st16{fill:#C53332;}
	.st17{fill:url(#SVGID_00000100355618024379614920000011378138544434337464_);}
</style>
<linearGradient id="SVGID_1_" gradientUnits="userSpaceOnUse" x1="156.0944" y1="114.9571" x2="1774.9382" y2="1290.7782">
	<stop  offset="0.0588" style="stop-color:#FFFFFF"/>
	<stop  offset="0.3362" style="stop-color:#E84C4A"/>
	<stop  offset="0.3978" style="stop-color:#E32321"/>
</linearGradient>
<path class="st0" d="M247.91,460.46c-3.17,48.35,46.21,64.56,129.1,158.62c151.73,172.17,111.03,256.44,196.11,301.5
	c190.74,101.01,804.09-115.87,789.17-352.35c-11.92-188.88-422.15-349.46-738.56-308.76C455.62,281.08,254.16,365.15,247.91,460.46z
	"/>
<g>
	<defs>
		<rect id="SVGID_00000106143123131967486450000010985348429563946908_" x="123" y="2" width="1248" height="1026"/>
	</defs>
	<clipPath id="SVGID_00000092433089962778573620000002832139202833298077_">
		<use xlink:href="#SVGID_00000106143123131967486450000010985348429563946908_"  style="overflow:visible;"/>
	</clipPath>
	
		<radialGradient id="SVGID_00000009579953067422474110000018198101835071963559_" cx="-131.8157" cy="373.4526" r="496.4242" gradientTransform="matrix(0.6409 1.0399 -0.8568 0.5132 1040.6423 317.3916)" gradientUnits="userSpaceOnUse">
		<stop  offset="0" style="stop-color:#FFFFFF"/>
		<stop  offset="0.8137" style="stop-color:#FFFFFF;stop-opacity:0.1"/>
	</radialGradient>
	
		<path style="clip-path:url(#SVGID_00000092433089962778573620000002832139202833298077_);fill:url(#SVGID_00000009579953067422474110000018198101835071963559_);" d="
		M1032.8,1015.52C677.97,1228.03,212.76,1112.18-6.29,756.75S-115.27-59.08,239.56-271.6s820.04-96.66,1039.08,258.77
		S1387.62,803.01,1032.8,1015.52z"/>
</g>
<path class="st2" d="M540.72,180.58c0.92-0.13,0.6-0.86,0.67-1.4C541.02,179.57,540.81,180.05,540.72,180.58z"/>
<path class="st2" d="M540.03,181.99c0.88-0.14,0.6-0.84,0.67-1.37C540.32,181,540.1,181.46,540.03,181.99z"/>
<path class="st2" d="M543.18,175.33c0.25-0.15,0.3-0.39,0.31-0.66C543.26,174.83,543.16,175.05,543.18,175.33z"/>
<path class="st3" d="M573.83,130.58c0.31-0.07,0.71,0.01,0.81-0.44C574.27,130.1,573.98,130.21,573.83,130.58z"/>
<linearGradient id="SVGID_00000010995589549446312670000007290617793079238796_" gradientUnits="userSpaceOnUse" x1="455.4406" y1="680.9492" x2="689.2834" y2="1119.9033" gradientTransform="matrix(-1 0 0 1 1152.4583 0)">
	<stop  offset="0.0152" style="stop-color:#801A13"/>
	<stop  offset="0.1756" style="stop-color:#B33837"/>
	<stop  offset="0.3091" style="stop-color:#E15257"/>
	<stop  offset="0.3613" style="stop-color:#DC4E53"/>
	<stop  offset="0.7738" style="stop-color:#BB3534"/>
	<stop  offset="1" style="stop-color:#AF2B28"/>
</linearGradient>
<path style="fill:url(#SVGID_00000010995589549446312670000007290617793079238796_);" d="M652.12,702.98
	c-0.47,1.76-1.42,3.32-2.17,4.95c-3.07,6.66-6.23,13.28-9.35,19.92c-4.3,9.17-8.59,18.34-12.88,27.52
	c-1.97,4.21-3.68,8.56-6.43,12.37c-1.36,1.89-2.85,3.67-4.65,5.19c-0.45,0.38-1.17,0.65-1.05,1.47c2.9-1.23,5.57-2.88,8.33-4.36
	c16.55-8.93,33.08-17.91,49.62-26.87c10.03-5.44,20.05-10.91,30.11-16.31c6.86-3.69,11.5-9.33,14.74-16.29
	c5.99-12.88,12.02-25.74,18.04-38.61c3.58-7.65,7.17-15.29,10.75-22.93c-0.74-0.53-1.61-0.56-2.46-0.67
	c-4.49-0.63-8.97-1.25-13.46-1.89c-5.29-0.76-10.57-1.54-15.86-2.29c-4.48-0.64-8.97-1.24-13.46-1.88
	c-5.46-0.78-10.92-1.56-16.38-2.37c-1.07-0.16-2.2-0.1-3.19-0.68c-0.12,0.01-0.23,0.03-0.35,0.04c-0.52,1.17-1.02,2.35-1.57,3.51
	c-3.09,6.59-6.2,13.18-9.28,19.77c-3.78,8.07-7.54,16.15-11.3,24.22c-1.53,3.27-3,6.57-4.58,9.82
	C654.23,698.72,653.39,700.96,652.12,702.98z"/>
<linearGradient id="SVGID_00000074403992007926770820000017974891863874623634_" gradientUnits="userSpaceOnUse" x1="529.7394" y1="52.4568" x2="252.2903" y2="739.9891" gradientTransform="matrix(-1 0 0 1 1152.4583 0)">
	<stop  offset="0.1405" style="stop-color:#C21A1B"/>
	<stop  offset="0.1949" style="stop-color:#CC2F28"/>
	<stop  offset="0.3204" style="stop-color:#E25A44"/>
	<stop  offset="0.3842" style="stop-color:#EA6B4F"/>
	<stop  offset="0.6828" style="stop-color:#AE1A19"/>
	<stop  offset="0.8001" style="stop-color:#AF1C1B"/>
	<stop  offset="0.8645" style="stop-color:#B42421"/>
	<stop  offset="0.916" style="stop-color:#BC322B"/>
	<stop  offset="0.9605" style="stop-color:#C7453A"/>
	<stop  offset="1" style="stop-color:#D55E4D"/>
</linearGradient>
<path style="fill:url(#SVGID_00000074403992007926770820000017974891863874623634_);" d="M574.61,130.15
	c0.58,0.17,1.11-0.07,1.65-0.2c1.31-0.32,2.61-0.74,3.98-0.78c3.92-0.79,7.84-0.52,11.75,0.1c3.34,0.53,6.47,1.77,9.6,2.96
	c1.8,0.66,3.32,1.8,4.91,2.82c0.93,0.6,1.86,1.19,2.79,1.78c0.23,0.53,0.94,0.61,1.14,1.18c1.16,0.69,2.18,1.55,3.11,2.51
	c1.16,1.19,2.31,2.4,3.46,3.61c0,0,0,0,0,0c0.72,0.97,1.45,1.94,2.16,2.92c2.7,3.72,4.71,7.79,6.42,12.05
	c2.17,5.44,4.46,10.83,6.7,16.25c0.11,0.2,0.25,0.4,0.34,0.61c3.54,8.47,7.09,16.94,10.59,25.43c1.08,2.63,2.35,5.19,3.2,7.91
	c0.38,0.39,0.49,0.91,0.62,1.41c0.1,0.24,0.21,0.47,0.31,0.71c0.15,0.31,0.32,0.62,0.46,0.94c7.21,17.26,14.42,34.52,21.63,51.78
	c6.62,15.86,13.25,31.72,19.87,47.59c7.14,17.1,14.26,34.21,21.39,51.31c7.97,19.09,15.94,38.18,23.91,57.27
	c7.59,18.18,15.18,36.35,22.75,54.53c1.43,3.44,2.99,6.83,4.21,10.35c0.14,0.25,0.3,0.49,0.41,0.75c2.22,5.28,4.44,10.56,6.65,15.85
	c2.72,6.5,5.42,13.01,8.14,19.52c2.18,5.22,4.36,10.45,6.55,15.67c2.53,6.03,5.08,12.06,7.59,18.1c1.71,4.11,3.37,8.24,5.05,12.36
	c1.72,4.05,3.46,8.09,5.16,12.14c2.15,5.13,4.21,10.3,6.44,15.4c2.48,5.68,4.46,11.48,5.18,17.66c0.14,0.01,0.27,0.01,0.39,0
	c-0.13,0.01-0.26,0.02-0.39,0.01c-0.24,0.94,0.3,1.86,0.07,2.8c0.41,2.62-0.11,5.21-0.32,7.8c-0.1,1.26-0.36,2.5-0.55,3.75
	c-0.84,1.53-1.07,3.28-1.72,4.88c-2.21,5.45-5.45,10.13-9.93,13.95c-0.37,0.32-1,0.46-0.95,1.14c1.71-0.61,3.21-1.61,4.79-2.46
	c20.63-11.16,41.24-22.35,61.86-33.52c7.27-3.94,14.54-7.86,21.8-11.8c9.08-4.93,14.62-12.56,17.07-22.53
	c0.58-1.85,0.81-3.76,1.04-5.67c0.25-2.92,0.25-5.85,0.01-8.77c-0.26-1.63-0.23-3.32-0.87-4.89c-0.28-2.57-1.11-5-2.09-7.37
	c-3.89-9.48-7.85-18.93-11.79-28.38c-6.47-15.53-12.94-31.06-19.42-46.58c-9.62-23.04-19.25-46.08-28.87-69.13
	c-7.06-16.92-14.1-33.85-21.17-50.77c-9.04-21.65-18.09-43.29-27.13-64.94c-7.04-16.87-14.07-33.74-21.11-50.6
	c-9.33-22.35-18.66-44.69-27.98-67.04c-9.01-21.59-18.01-43.19-27.03-64.79c-1.32-3.17-2.71-6.31-4.77-9.09
	c-2.4-4.08-5.47-7.57-9.18-10.5c-2.91-2.65-6.17-4.76-9.82-6.25c-3.01-1.67-6.29-2.47-9.62-3.17c-1.22-0.26-2.52-0.09-3.68-0.68
	c-1.75,0-3.5,0-5.25,0c-0.89,0.52-1.91,0.37-2.87,0.52c-4.62,0.73-8.75,2.7-12.81,4.91c-27.98,15.2-55.99,30.35-83.98,45.53
	C575.83,129.3,575.1,129.55,574.61,130.15z"/>
<path class="st3" d="M813.61,612.48c0.12-0.05,0.24-0.1,0.36-0.16C813.85,612.38,813.73,612.43,813.61,612.48z"/>
<path class="st3" d="M799.34,646.92c-0.33-0.04-0.59,0.04-0.73,0.37C798.91,647.29,799.19,647.23,799.34,646.92z"/>
<path class="st2" d="M798.61,647.3c-0.29-0.01-0.55,0.02-0.62,0.37C798.26,647.66,798.51,647.61,798.61,647.3z"/>
<linearGradient id="SVGID_00000070098823679087409970000009865501714294514106_" gradientUnits="userSpaceOnUse" x1="602.7582" y1="424.7247" x2="642.1447" y2="492.6429">
	<stop  offset="0.0514" style="stop-color:#801A13"/>
	<stop  offset="0.1378" style="stop-color:#B3271F"/>
	<stop  offset="0.2158" style="stop-color:#E5332A"/>
	<stop  offset="0.3839" style="stop-color:#AF2720"/>
	<stop  offset="0.568" style="stop-color:#7A1C16"/>
	<stop  offset="0.7064" style="stop-color:#581510"/>
	<stop  offset="0.782" style="stop-color:#4C120E"/>
	<stop  offset="1" style="stop-color:#AF2B28"/>
</linearGradient>
<path style="fill:url(#SVGID_00000070098823679087409970000009865501714294514106_);" d="M582.03,439.11
	c5.16-2.81,10.3-5.64,15.47-8.43c5.01-2.71,10.05-5.37,15.07-8.09c0.76-0.41,1.44-0.98,2.15-1.47c0.58,0.13,0.99-0.27,1.43-0.51
	c3.98-2.15,7.96-4.3,11.93-6.45c0.35-0.19,0.69-0.43,1.12-0.44c0.98,1.62,2.37,3.01,2.76,4.96c0.4,0.12,0.42,0.53,0.59,0.81
	c1.2,1.98,1.86,4.22,2.81,6.32c0.71,1.59,1.64,3.06,2.29,4.66c1.17,2.85,2.3,5.73,3.4,8.61c2.12,5.54,3.83,11.22,5.52,16.91
	c0.38,1.29,0.86,2.61,0.85,4c0.07,0.1,0.14,0.21,0.22,0.31c0.01,0.26,0.02,0.51,0.03,0.77c-0.4,0.47-0.05,0.57,0.32,0.66
	c0.02,0.24,0.04,0.48,0.06,0.72c-0.43,0.45-0.11,0.58,0.29,0.68c-0.01,0.23-0.03,0.45-0.04,0.68c0.19,0.27,0.44,0.49,0.51,0.87
	c0.31,1.77,0.76,3.52,0.79,5.33c-0.49-0.02-0.89,0.24-1.3,0.46c-10.67,5.79-21.34,11.59-32.02,17.35c-2.55,1.37-5.02,2.9-7.7,4.03
	c-0.01-0.25,0.08-0.45,0.27-0.6c3.01-2.47,5.08-5.61,6.54-9.18c0.11-0.26,0.27-0.5,0.41-0.75c0,0,0,0,0,0
	c1.09-3.27,1.61-6.63,1.55-10.09c-0.14-8.13-2.96-15.24-8.18-21.41c-4.43-5.23-9.99-8.65-16.68-10.2c0.01-0.15,0.03-0.28,0.08-0.4
	c-0.05,0.12-0.08,0.25-0.08,0.4c-1.17,0.07-2.29-0.3-3.45-0.35c-2.63-0.1-5.2,0.27-7.76,0.72
	C581.3,439.48,581.67,439.31,582.03,439.11z"/>
<path class="st7" d="M653.48,502.67c0,3.97,0,7.95,0,11.92c0.31-0.34,0.25-0.76,0.25-1.16c0.01-3.2,0.01-6.4,0.01-9.6
	C653.74,503.43,653.79,503.01,653.48,502.67z"/>
<path class="st7" d="M651.62,480.96c-0.06,0.96-0.02,1.92,0.36,2.82C651.98,482.83,652.22,481.84,651.62,480.96z"/>
<path class="st7" d="M652.34,486.55c-0.02,0.85-0.11,1.71,0.31,2.51C652.68,488.21,652.89,487.34,652.34,486.55z"/>
<path class="st7" d="M653.13,495.31c-0.09,0.85-0.19,1.71,0.2,2.52C653.4,496.98,653.6,496.12,653.13,495.31z"/>
<path class="st7" d="M651.98,483.77c-0.04,0.75-0.11,1.5,0.31,2.18C652.34,485.2,652.52,484.44,651.98,483.77z"/>
<path class="st7" d="M651.3,478.85c-0.04,0.63-0.07,1.26,0.3,1.82C651.66,480.04,651.79,479.39,651.3,478.85z"/>
<path class="st8" d="M692.03,509.56c0.05,0.13,0.07,0.27,0.13,0.29c0.17,0.06,0.32-0.05,0.34-0.21c0.01-0.07,0.28-0.32-0.08-0.28
	C692.28,509.38,692.16,509.49,692.03,509.56z"/>
<path class="st7" d="M652.79,491.45c-0.12,0.52-0.16,1.03,0.19,1.49C653.07,492.42,653.17,491.91,652.79,491.45z"/>
<path class="st9" d="M647.68,461.06c-0.4,0.47-0.05,0.57,0.32,0.66C648.14,461.39,648.1,461.13,647.68,461.06z"/>
<path class="st9" d="M648.06,462.45c-0.43,0.45-0.11,0.58,0.29,0.68C648.49,462.8,648.47,462.54,648.06,462.45z"/>
<path class="st7" d="M653.46,515.28c-0.18,0.47-0.16,0.94-0.05,1.42c0.1-0.02,0.2-0.04,0.3-0.06
	C653.65,516.19,653.84,515.68,653.46,515.28z"/>
<path class="st7" d="M653.4,500.56c-0.1,0.37-0.09,0.73,0.04,1.09C653.79,501.27,653.77,500.9,653.4,500.56z"/>
<path class="st7" d="M652.69,490.06c-0.09,0.25-0.06,0.5,0.05,0.73C653.03,490.52,652.98,490.28,652.69,490.06z"/>
<path class="st7" d="M653.05,494.25c0.01,0.13,0.02,0.26,0.03,0.4C653.28,494.5,653.25,494.37,653.05,494.25z"/>
<path class="st9" d="M647.44,459.98c0.07,0.1,0.14,0.21,0.22,0.31C647.76,460.07,647.61,460.02,647.44,459.98z"/>
<path class="st10" d="M530.23,591.97c-0.3-0.02-0.57,0.03-0.74,0.32C529.79,592.31,530.06,592.25,530.23,591.97z"/>
<path class="st10" d="M529.48,592.3c-0.28,0-0.53,0.06-0.68,0.33C529.08,592.64,529.32,592.56,529.48,592.3z"/>
<path class="st10" d="M530.97,591.63c-0.14,0.08-0.28,0.16-0.41,0.24C530.74,591.88,530.88,591.8,530.97,591.63z"/>
<linearGradient id="SVGID_00000147195235103722155670000017383693110761430931_" gradientUnits="userSpaceOnUse" x1="618.7103" y1="435.3356" x2="514.2628" y2="733.2341" gradientTransform="matrix(-1 0 0 1 1152.4583 0)">
	<stop  offset="0.0514" style="stop-color:#801A13"/>
	<stop  offset="0.1378" style="stop-color:#B3271F"/>
	<stop  offset="0.2158" style="stop-color:#E5332A"/>
	<stop  offset="0.314" style="stop-color:#AF2720"/>
	<stop  offset="0.4215" style="stop-color:#7A1C16"/>
	<stop  offset="0.5024" style="stop-color:#581510"/>
	<stop  offset="0.5465" style="stop-color:#4C120E"/>
	<stop  offset="1" style="stop-color:#AF2B28"/>
</linearGradient>
<path style="fill:url(#SVGID_00000147195235103722155670000017383693110761430931_);" d="M494.76,574.56
	c0.61-6.43,1.54-12.8,3.2-19.05c0.8-3.03,1.71-6.03,2.56-9.05c0.31-0.74,0.65-1.48,0.94-2.23c1.43-3.68,2.84-7.36,4.85-10.78
	c0,0,0,0,0,0c0.18-0.43,0.32-0.88,0.53-1.28c2.77-5.27,5.96-10.27,9.67-14.92c1.67-2.09,3.4-4.13,5.1-6.19
	c-0.72-5.2-0.96-10.43-1.13-15.66c-0.25-7.57,0.18-15.13,0.89-22.67c0.68-7.14,1.8-14.2,3.38-21.18
	c2.78-12.32,6.92-24.17,12.54-35.48c1.09-2.19,2.23-4.35,3.35-6.52c0.21-0.25,0.43-0.49,0.64-0.74c0.21-0.48,0.38-0.98,0.65-1.42
	c2.74-4.6,5.65-9.09,8.86-13.37c5.66-7.56,12.02-14.49,19.07-20.78c1.73-1.55,3.67-2.86,5.26-4.56c0.75-0.54,1.52-1.06,2.26-1.62
	c3.02-2.3,6.15-4.42,9.31-6.5c0.73-0.48,1.24-0.65,1.92,0.1c0.86,0.94,1.88,1.75,2.8,2.63c4.92,4.73,9.52,9.77,13.91,14.98
	c1.65,1.95,3.32,3.89,4.71,6.05c0.24,0.24,0.52,0.46,0.72,0.73c2.29,3.12,4.58,6.23,6.83,9.37c0.59,0.83,1.32,1.62,1.54,2.68
	c-0.82,1.62-1.03,3.42-1.41,5.16c-1.36,6.23-2.4,12.51-3.01,18.86c-0.72,0.49-1.39,1.06-2.15,1.47c-5.01,2.71-10.05,5.38-15.07,8.09
	c-5.17,2.79-10.31,5.62-15.47,8.43c-0.36,0.2-0.74,0.37-0.76,0.87c-0.08,0.06-0.17,0.08-0.27,0.06c-0.3-0.03-0.58,0-0.77,0.29
	c-2.23,1.13-4.52,2.14-6.47,3.77c-4.39,3.65-7.07,8.32-8.21,13.86c-1.86,9.07,0.31,17.32,5.3,24.95c0.25,0.39,0.62,0.71,0.7,1.19
	c0.89,0.98,1.78,1.97,2.69,2.94c3.63,3.91,8,6.66,13.09,8.26c0.21,0.07,0.41,0.19,0.62,0.29c0,0,0,0,0,0
	c1.92,0.33,3.83,0.65,5.75,0.97c-2.45,6.99-4.05,14.19-5.07,21.52c-1.01,7.28-1.3,14.6-0.99,21.94c0.25,5.81,0.83,11.6,1.92,17.32
	c0.1,0.51,0.12,1.04,0.18,1.56c-0.17,0.48-0.54,0.72-0.97,0.95c-3.5,1.85-6.99,3.7-10.47,5.59c-5.42,2.93-10.82,5.89-16.22,8.84
	c-2.14,1.17-4.26,2.37-6.4,3.52c-5.02,2.7-10.04,5.37-15.06,8.07c-2.77,1.49-5.52,2.99-8.29,4.49c-0.52,0.28-1.08,0.49-1.1,1.21
	c-0.08,0.06-0.17,0.08-0.27,0.06c-0.14,0.08-0.27,0.16-0.41,0.24c-0.1,0.07-0.2,0.1-0.32,0.1c-0.3-0.02-0.57,0.03-0.74,0.32
	l-0.01,0.01c-0.28,0-0.53,0.07-0.68,0.33c-0.2,0.11-0.4,0.24-0.61,0.34c-9.87,4.6-18.98,10.35-27.11,17.63
	c-1.11,0.99-2.02,2.29-3.51,2.81c-0.11-0.12-0.23-0.25-0.34-0.37c-0.37-2.82-0.98-5.6-1.44-8.41c-1.04-6.39-1.48-12.83-1.49-19.27
	C494.29,581.77,494.42,578.16,494.76,574.56z"/>
<path class="st2" d="M517.92,348.86c0.2-0.05,0.29-0.19,0.24-0.36c-0.06-0.22-0.23-0.38-0.46-0.42c-0.2-0.04-0.33,0.09-0.31,0.28
	C517.42,348.66,517.6,348.85,517.92,348.86z"/>
<linearGradient id="SVGID_00000134935959661502755670000004741855233115085758_" gradientUnits="userSpaceOnUse" x1="522.2264" y1="467.9052" x2="693.0093" y2="467.9052" gradientTransform="matrix(-1 0 0 1 1152.4583 0)">
	<stop  offset="0.1405" style="stop-color:#C21A1B"/>
	<stop  offset="0.2278" style="stop-color:#CC2F28"/>
	<stop  offset="0.4291" style="stop-color:#E25A44"/>
	<stop  offset="0.5315" style="stop-color:#EA6B4F"/>
	<stop  offset="0.6828" style="stop-color:#AE1A19"/>
	<stop  offset="0.8001" style="stop-color:#AF1C1B"/>
	<stop  offset="0.8645" style="stop-color:#B42421"/>
	<stop  offset="0.916" style="stop-color:#BC322B"/>
	<stop  offset="0.9605" style="stop-color:#C7453A"/>
	<stop  offset="1" style="stop-color:#D55E4D"/>
</linearGradient>
<path style="fill:url(#SVGID_00000134935959661502755670000004741855233115085758_);" d="M571.56,484.11
	c0.89,0.98,1.78,1.97,2.69,2.94c3.63,3.91,8,6.66,13.09,8.26c0.21,0.07,0.41,0.19,0.62,0.29c1.92,0.32,3.83,0.65,5.75,0.97
	c1.39-0.12,2.79-0.18,4.16-0.36c3.64-0.48,6.92-1.94,9.98-3.91c0.16-0.31,0.42-0.44,0.76-0.47c0,0-0.02,0.01-0.02,0.01
	c-0.01-0.25,0.08-0.45,0.27-0.6c3.01-2.47,5.08-5.61,6.54-9.18c0.11-0.26,0.27-0.5,0.41-0.75c1.09-3.27,1.6-6.63,1.55-10.09
	c-0.14-8.13-2.96-15.24-8.18-21.41c-4.43-5.23-9.99-8.65-16.68-10.2c-1.17,0.07-2.29-0.3-3.45-0.35c-2.63-0.1-5.2,0.27-7.76,0.72
	c-0.08,0.06-0.17,0.08-0.27,0.06c-0.19,0.26-0.47,0.31-0.77,0.29c-2.23,1.13-4.52,2.14-6.47,3.77c-4.39,3.65-7.07,8.32-8.21,13.86
	c-1.86,9.07,0.31,17.32,5.3,24.95C571.11,483.3,571.47,483.62,571.56,484.11z"/>
<linearGradient id="SVGID_00000070798186436723695560000010428434090894327211_" gradientUnits="userSpaceOnUse" x1="388.8433" y1="232.8426" x2="1100.4728" y2="1622.3751" gradientTransform="matrix(-1 0 0 1 1152.4583 0)">
	<stop  offset="0.1443" style="stop-color:#C21A1B"/>
	<stop  offset="0.1936" style="stop-color:#BF1A1B"/>
	<stop  offset="0.4893" style="stop-color:#AE1A19"/>
	<stop  offset="0.6425" style="stop-color:#EA6B4F"/>
	<stop  offset="1" style="stop-color:#D55E4D"/>
</linearGradient>
<path style="fill:url(#SVGID_00000070798186436723695560000010428434090894327211_);" d="M372.88,534.8
	c3.37-6.78,6.51-13.69,9.75-20.54c4.46-9.43,8.91-18.87,13.38-28.3c4.47-9.43,8.97-18.84,13.44-28.27
	c1.83-3.86,3.62-7.74,5.44-11.61c3.98-8.43,7.97-16.86,11.97-25.29c1.67-3.53,3.38-7.03,5.07-10.55c1.12-2.43,2.23-4.87,3.38-7.29
	c4.46-9.43,8.93-18.86,13.39-28.3c4.41-9.33,8.82-18.66,13.24-27.98c3.92-8.27,7.85-16.54,11.76-24.81
	c5.04-10.64,10.07-21.27,15.1-31.91c1.89-3.99,3.75-7.99,5.66-11.98c1.25-2.62,2.55-5.21,3.83-7.81c1.01-2.22,2-4.44,3.03-6.65
	c2.3-4.89,4.63-9.78,6.94-14.66c4.44-9.38,8.87-18.76,13.31-28.13c4.51-9.53,9.01-19.08,13.56-28.59c1.35-2.83,2.53-5.75,4.14-8.46
	c0.1-0.63,0.38-1.18,0.76-1.69c0.88-0.14,0.6-0.84,0.67-1.37c0,0,0.02-0.04,0.02-0.04c0.92-0.13,0.6-0.86,0.67-1.4
	c0.39-1.38,1.11-2.6,1.79-3.85c0.25-0.15,0.3-0.39,0.31-0.66c0.04-0.17,0.06-0.35,0.13-0.5c2.04-3.97,3.93-8.03,5.84-12.06
	c2.04-4.32,4.14-8.63,6.05-13.02c1.68-3.87,3.85-7.46,6.75-10.56c3.27-3.51,7.18-6.08,11.57-7.95c0.31-0.07,0.69,0.01,0.81-0.42
	c0.57,0.15,1.09-0.08,1.63-0.21c1.31-0.32,2.61-0.74,3.98-0.78c0.14,0.41,0.25,0.82,0.33,1.22c-0.08-0.41-0.2-0.81-0.33-1.22
	c3.92-0.79,7.84-0.52,11.75,0.1c3.34,0.53,6.47,1.77,9.6,2.96c1.8,0.66,3.32,1.8,4.91,2.82c0.93,0.6,1.86,1.19,2.79,1.78
	c0.23,0.53,0.94,0.61,1.14,1.18c1.16,0.69,2.18,1.55,3.11,2.51c1.16,1.19,2.31,2.4,3.46,3.61c0.72,0.97,1.45,1.94,2.16,2.92
	c2.7,3.72,4.71,7.79,6.42,12.05c2.17,5.44,4.46,10.83,6.7,16.25c0,0,0,0,0,0c0.11,0.2,0.25,0.4,0.34,0.61
	c3.54,8.47,7.09,16.94,10.59,25.43c1.08,2.63,2.35,5.19,3.2,7.91c0.38,0.39,0.49,0.91,0.62,1.41c-0.22,0.03-0.51,0.09-0.48,0.34
	c0.05,0.48,0.49,0.31,0.79,0.37c0.15,0.31,0.32,0.62,0.46,0.94c7.21,17.26,14.42,34.52,21.63,51.78
	c6.62,15.86,13.25,31.72,19.87,47.59c7.14,17.1,14.26,34.21,21.39,51.31c7.97,19.09,15.94,38.18,23.91,57.27
	c7.59,18.18,15.18,36.35,22.75,54.53c1.43,3.44,2.99,6.83,4.21,10.35c0.14,0.25,0.3,0.49,0.41,0.75c2.22,5.28,4.44,10.56,6.65,15.85
	c2.72,6.5,5.42,13.01,8.13,19.52c2.18,5.22,4.36,10.45,6.55,15.67c2.53,6.03,5.08,12.06,7.59,18.1c1.71,4.11,3.37,8.24,5.05,12.36
	c1.72,4.05,3.46,8.09,5.16,12.14c2.15,5.13,4.21,10.3,6.44,15.4c2.48,5.68,4.46,11.48,5.18,17.66c-0.24,0.94,0.3,1.86,0.07,2.8
	c0.41,2.62-0.11,5.21-0.32,7.8c-0.1,1.26-0.36,2.5-0.55,3.75c-0.84,1.53-1.07,3.28-1.72,4.88c-2.21,5.45-5.45,10.13-9.93,13.95
	c-0.37,0.31-0.98,0.46-0.95,1.12c-0.32-0.03-0.57,0.05-0.71,0.38v0c-0.29-0.01-0.55,0.02-0.62,0.37c-0.15,0.26-0.39,0.34-0.66,0.34
	c-0.12-0.01-0.24-0.01-0.37-0.01c0.12,0,0.25,0,0.37,0.01c-6.63,4.32-13.94,5.7-21.68,4.74c-7.67-0.95-15.3-2.18-22.96-3.23
	c-1.82-0.25-3.63-0.83-5.5-0.53c-0.74-0.53-1.61-0.56-2.46-0.67c-4.49-0.63-8.97-1.25-13.46-1.89c-5.29-0.76-10.57-1.54-15.86-2.29
	c-4.48-0.64-8.97-1.24-13.46-1.88c-5.46-0.78-10.92-1.56-16.38-2.37c-1.07-0.16-2.2-0.1-3.19-0.68c1.14-5.19,1.8-10.43,2.22-15.72
	c0.32-4.08,0.36-8.15,0.29-12.23c-0.1-5.89-0.72-11.73-1.62-17.55c-1.29-8.32-3.4-16.42-6.2-24.34c-4-11.32-9.42-21.94-16.13-31.9
	c-0.13-0.19-0.31-0.34-0.47-0.51c-0.75-1.37-1.51-2.73-2.84-3.65c0.02-0.82-0.51-1.36-0.97-1.94c-1.2-1.52-2.38-3.05-3.57-4.58
	c-0.03-1.05-0.05-2.1-0.08-3.15c0.02-0.33,0.03-0.66,0.05-0.99c0.61-1.15,0.3-2.37,0.29-3.57c0.03-0.79,0.05-1.59,0.08-2.38
	c0.1-0.02,0.2-0.04,0.3-0.06c0.28,0.44,0.53,0.91,0.87,1.27c-0.34-0.36-0.59-0.83-0.87-1.27c-0.07-0.46,0.12-0.96-0.25-1.36
	c0.01-0.23,0.01-0.46,0.02-0.69c0.31-0.34,0.25-0.76,0.25-1.16c0.01-3.2,0.01-6.4,0.01-9.6c0-0.4,0.05-0.82-0.26-1.16
	c-0.01-0.34-0.03-0.68-0.04-1.03c0.35-0.38,0.33-0.74-0.04-1.09c-0.02-0.91-0.04-1.82-0.07-2.73c0.07-0.85,0.26-1.71-0.2-2.52
	c-0.02-0.22-0.04-0.44-0.05-0.66c0.21-0.15,0.18-0.28-0.03-0.4c-0.02-0.44-0.04-0.87-0.07-1.31c0.09-0.52,0.19-1.04-0.19-1.49
	c-0.02-0.22-0.03-0.44-0.05-0.66c0.29-0.27,0.24-0.51-0.05-0.74c-0.01-0.33-0.03-0.66-0.04-0.99c0.04-0.85,0.25-1.73-0.31-2.51
	c-0.02-0.2-0.04-0.4-0.05-0.6c0.05-0.75,0.23-1.51-0.3-2.18c0-0.95,0.24-1.94-0.36-2.81c-0.04-0.09-0.04-0.19-0.02-0.29
	c0.06-0.63,0.2-1.28-0.3-1.82c-0.07-2.32-0.53-4.57-1.11-6.82c-0.18-0.68,0-1.46-0.59-2.03c-0.02-1.81-0.47-3.56-0.79-5.33
	c-0.07-0.38-0.32-0.59-0.51-0.87c0.01-0.23,0.03-0.45,0.04-0.68c0.14-0.33,0.13-0.59-0.29-0.68c-0.02-0.24-0.04-0.48-0.06-0.72
	c0.13-0.34,0.1-0.6-0.32-0.66c-0.01-0.26-0.02-0.51-0.03-0.77c0.11-0.23-0.04-0.28-0.21-0.31c0.01-1.39-0.47-2.71-0.85-4
	c-1.69-5.68-3.4-11.36-5.52-16.91c-1.1-2.88-2.23-5.76-3.4-8.61c-0.66-1.6-1.58-3.07-2.29-4.66c-0.95-2.1-1.61-4.34-2.81-6.32
	c-0.17-0.28-0.19-0.69-0.59-0.81c-0.39-1.95-1.78-3.34-2.76-4.96c-0.3-1.53-1.24-2.78-1.97-4.07c-2.27-4-4.8-7.85-7.22-11.76
	c-0.22-0.36-0.46-0.67-0.88-0.79c-0.22-1.06-0.94-1.85-1.54-2.68c-2.24-3.15-4.54-6.26-6.83-9.37c-0.2-0.27-0.48-0.49-0.72-0.73
	c-1.39-2.16-3.06-4.1-4.71-6.05c-4.4-5.21-9-10.25-13.91-14.98c-0.92-0.89-1.94-1.69-2.8-2.63c-0.68-0.75-1.19-0.58-1.92-0.1
	c-3.16,2.09-6.3,4.21-9.31,6.5c-0.74,0.56-1.51,1.08-2.26,1.62c-0.22,0-0.44-0.05-0.66-0.04c0.21-0.01,0.44,0.03,0.66,0.04
	c-1.6,1.7-3.53,3.01-5.26,4.56c-7.06,6.29-13.41,13.22-19.07,20.78c-3.21,4.28-6.13,8.77-8.86,13.37c-0.26,0.45-0.43,0.95-0.65,1.42
	c-0.21,0.25-0.43,0.49-0.64,0.74c0,0,0,0,0,0c-1.12,2.17-2.27,4.33-3.35,6.52c-5.62,11.32-9.76,23.16-12.54,35.48
	c-1.58,6.99-2.7,14.05-3.38,21.18c-0.72,7.55-1.14,15.1-0.89,22.67c0.17,5.23,0.41,10.47,1.13,15.66c-1.7,2.06-3.43,4.1-5.1,6.19
	c-3.72,4.65-6.9,9.65-9.67,14.92c-0.21,0.41-0.36,0.85-0.53,1.28c-2.01,3.41-3.42,7.1-4.85,10.78c-0.29,0.75-0.62,1.49-0.94,2.23
	c0,0,0,0,0,0c-0.86,3.02-1.76,6.02-2.56,9.05c-1.66,6.25-2.59,12.62-3.2,19.05c-0.34,3.6-0.47,7.21-0.46,10.79
	c0.01,6.45,0.44,12.88,1.49,19.27c0.46,2.81,1.07,5.59,1.44,8.41c-0.32-0.02-0.64-0.04-0.96-0.06c-0.66-0.55-1.42-0.37-2.16-0.33
	c0,0-0.14,0.01-0.14,0.01l-0.14-0.03c-0.66-0.55-1.42-0.37-2.17-0.32c0,0-0.14,0.01-0.14,0.01l-0.14-0.03
	c-0.11-0.19-0.23-0.21-0.38-0.04c-0.22-0.02-0.43-0.05-0.65-0.07c-0.33-0.34-0.73-0.32-1.14-0.21c0,0-0.14,0.01-0.14,0.01
	l-0.14-0.04c-0.66-0.55-1.42-0.38-2.17-0.32c0,0-0.14,0.01-0.14,0.01l-0.14-0.03c-0.11-0.19-0.23-0.21-0.38-0.04
	c-0.22-0.02-0.43-0.05-0.65-0.07c-0.33-0.34-0.73-0.32-1.14-0.21c0,0-0.14,0.01-0.14,0.01l-0.14-0.03
	c-0.11-0.19-0.23-0.21-0.38-0.04c-0.22-0.02-0.43-0.05-0.65-0.07c-0.33-0.34-0.73-0.32-1.14-0.21c0,0-0.14,0.01-0.14,0.01
	l-0.14-0.04c-0.11-0.19-0.23-0.22-0.38-0.04c-0.22-0.02-0.43-0.05-0.65-0.07c-0.33-0.34-0.73-0.32-1.14-0.21
	c0,0-0.14,0.01-0.14,0.01l-0.14-0.04c-0.11-0.19-0.23-0.22-0.38-0.04c-0.22-0.02-0.43-0.05-0.65-0.07
	c-0.33-0.34-0.73-0.32-1.14-0.21c0,0-0.14,0.01-0.14,0.01l-0.14-0.03c-0.11-0.19-0.23-0.21-0.38-0.04
	c-0.22-0.02-0.43-0.05-0.65-0.07c-0.33-0.34-0.73-0.32-1.14-0.21c0,0-0.14,0.01-0.14,0.01l-0.14-0.03
	c-0.11-0.19-0.23-0.21-0.38-0.04c-0.22-0.02-0.43-0.05-0.65-0.07c-0.33-0.34-0.73-0.32-1.14-0.21c0,0-0.14,0.01-0.14,0.01
	l-0.14-0.03c-0.11-0.19-0.23-0.21-0.38-0.04c-0.22-0.02-0.43-0.05-0.65-0.07c-0.33-0.34-0.73-0.32-1.14-0.21
	c0,0-0.14,0.01-0.14,0.01l-0.14-0.03c-0.67-0.53-1.43-0.38-2.18-0.32c0,0-0.14,0.01-0.14,0.01l-0.13-0.04
	c-0.67-0.54-1.43-0.39-2.19-0.32c0,0-0.13,0.01-0.13,0.01l-0.13-0.04c-0.66-0.54-1.43-0.39-2.19-0.32c0,0-0.13,0.01-0.13,0.01
	l-0.13-0.04c-0.66-0.54-1.43-0.39-2.19-0.32c0,0-0.13,0.01-0.13,0.01l-0.13-0.04c-0.67-0.55-1.44-0.37-2.19-0.32
	c-3.05-0.41-6.1-0.8-9.14-1.23c-4.54-0.64-9.08-1.3-13.62-1.95c-3.62-0.52-7.24-1.02-10.86-1.53c-3.91-0.55-7.83-1.06-11.73-1.66
	c-3.21-0.49-6.45-0.79-9.6-1.61c-8.76-2.25-15.99-6.98-21.83-13.79c-7.44-8.68-11.73-18.66-12.12-30.23
	C368.18,548.14,369.64,541.33,372.88,534.8z"/>
<path class="st14" d="M574.64,130.14c0,0.01,0,0.01-0.01,0.02c-0.01,0-0.02,0-0.03,0C574.61,130.15,574.64,130.14,574.64,130.14z"/>
<polygon class="st14" points="651.98,483.77 651.98,483.77 651.98,483.78 "/>
<path class="st14" d="M799.31,646.94c0-0.01,0-0.01,0-0.02c0.01,0,0.01,0,0.02,0L799.31,646.94z"/>
<path class="st14" d="M692.32,509.39c0.03-0.01,0.06-0.02,0.1-0.03c0.23-0.03,0.21,0.06,0.16,0.15c-0.09-0.02-0.18-0.05-0.27-0.07
	C692.31,509.43,692.32,509.41,692.32,509.39z"/>
<path class="st14" d="M647.02,210.69c-0.22,0.03-0.51,0.09-0.48,0.34c0.05,0.48,0.49,0.31,0.79,0.37
	C647.22,211.16,647.12,210.93,647.02,210.69z"/>
<linearGradient id="SVGID_00000018927661561795133310000017248904503049512839_" gradientUnits="userSpaceOnUse" x1="513.0787" y1="478.6757" x2="835.2883" y2="810.1708">
	<stop  offset="0.0514" style="stop-color:#801A13"/>
	<stop  offset="0.1378" style="stop-color:#B3271F"/>
	<stop  offset="0.2158" style="stop-color:#E5332A"/>
	<stop  offset="0.3049" style="stop-color:#AF2720"/>
	<stop  offset="0.4024" style="stop-color:#7A1C16"/>
	<stop  offset="0.4757" style="stop-color:#581510"/>
	<stop  offset="0.5158" style="stop-color:#4C120E"/>
	<stop  offset="1" style="stop-color:#AF2B28"/>
</linearGradient>
<path style="fill:url(#SVGID_00000018927661561795133310000017248904503049512839_);" d="M532.34,590.36c2.76-1.49,5.52-3,8.29-4.49
	c5.02-2.69,10.04-5.37,15.06-8.07c2.14-1.15,4.27-2.35,6.4-3.52c5.41-2.95,10.81-5.91,16.22-8.84c3.48-1.88,6.98-3.73,10.47-5.59
	c0.43-0.23,0.8-0.47,0.97-0.95c0.51,0.19,0.9-0.12,1.29-0.34c7.21-3.91,14.44-7.81,21.63-11.76c7.84-4.31,16.03-7.73,24.67-10.05
	c6.65-1.79,13.41-2.9,20.27-3.44c1.33,0.92,2.09,2.28,2.84,3.65c0.16,0.17,0.35,0.32,0.47,0.51c6.71,9.96,12.13,20.58,16.13,31.9
	c2.8,7.92,4.91,16.02,6.2,24.34c0.9,5.82,1.52,11.66,1.62,17.55c0.07,4.08,0.04,8.15-0.29,12.23c-0.42,5.29-1.08,10.54-2.22,15.72
	c-0.12,0.01-0.23,0.03-0.35,0.04c-0.56-0.35-0.9-0.9-1.31-1.39c-1.94-2.25-3.83-4.55-5.85-6.72c-7.04-7.55-14.64-14.48-22.97-20.6
	c-5.28-3.89-10.82-7.38-16.58-10.52c-2.53-1.38-5.15-2.61-7.75-3.87c-3.91-1.9-7.96-3.45-12.02-4.98
	c-6.31-2.39-12.88-3.83-19.42-5.37c-4.3-1.01-8.72-1.46-13.12-1.85c-5-0.44-10.01-0.46-15.02-0.36c-1.28,0.03-2.53,0.46-3.83,0.23
	c-2.83,0.37-5.66,0.69-8.47,1.12c-2.81,0.43-5.62,0.84-8.34,1.71c-2.6,0.34-5.08,1.18-7.56,1.96c-2.87,0.9-5.69,1.96-8.54,2.95
	C531.26,590.85,531.82,590.64,532.34,590.36z"/>
<path class="st7" d="M653.33,519.09c-0.48,1.16-0.27,2.37-0.29,3.57C653.66,521.51,653.35,520.29,653.33,519.09z"/>
<path class="st7" d="M653,523.64c-0.27,1.06-0.77,2.12,0.07,3.15C653.05,525.75,653.02,524.7,653,523.64z"/>
<path class="st10" d="M580.24,440.33c0.3,0.03,0.57-0.03,0.77-0.29C580.7,440,580.42,440.03,580.24,440.33z"/>
<path class="st9" d="M608.61,491.82c-0.33,0.03-0.6,0.16-0.76,0.47C608.13,492.18,608.44,492.12,608.61,491.82z"/>
<path class="st16" d="M595.41,645.09c0.04,0.1,0.06,0.25,0.13,0.28c0.07,0.03,0.19-0.07,0.29-0.11c-0.04-0.1-0.06-0.25-0.13-0.28
	C595.63,644.95,595.51,645.04,595.41,645.09z"/>
<linearGradient id="SVGID_00000085961128215869616990000005514269021876803226_" gradientUnits="userSpaceOnUse" x1="490.283" y1="582.4205" x2="862.4935" y2="975.3093" gradientTransform="matrix(-1 0 0 1 1152.4583 0)">
	<stop  offset="0" style="stop-color:#D55E4D"/>
	<stop  offset="0.1308" style="stop-color:#C21A1B"/>
	<stop  offset="0.1848" style="stop-color:#BF1A1B"/>
	<stop  offset="0.5087" style="stop-color:#AE1A19"/>
</linearGradient>
<path style="fill:url(#SVGID_00000085961128215869616990000005514269021876803226_);" d="M501.07,610.59
	c8.13-7.28,17.25-13.03,27.11-17.63c0.21-0.1,0.41-0.22,0.61-0.34c0.29,0.02,0.53-0.06,0.68-0.33l0.01-0.01
	c0.3,0.01,0.57-0.04,0.74-0.32c0.12,0,0.22-0.03,0.32-0.1c0.19,0.01,0.33-0.07,0.41-0.24c0.1,0.02,0.19,0,0.27-0.06
	c2.84-0.99,5.66-2.05,8.54-2.95c2.48-0.78,4.96-1.62,7.56-1.96c2.72-0.87,5.54-1.28,8.34-1.71c2.82-0.43,5.65-0.75,8.47-1.12
	c1.29,0.22,2.54-0.21,3.83-0.23c5.01-0.11,10.02-0.09,15.02,0.36c4.4,0.39,8.82,0.84,13.12,1.85c6.54,1.54,13.11,2.97,19.42,5.37
	c4.06,1.54,8.11,3.08,12.02,4.98c2.6,1.26,5.21,2.49,7.75,3.87c5.76,3.14,11.29,6.63,16.58,10.52c8.33,6.12,15.93,13.05,22.97,20.6
	c2.02,2.17,3.91,4.48,5.85,6.72c0.42,0.48,0.76,1.04,1.31,1.39c-0.52,1.17-1.02,2.35-1.57,3.51c-3.09,6.59-6.2,13.18-9.28,19.77
	c-3.78,8.07-7.54,16.15-11.3,24.22c-1.53,3.27-3,6.57-4.58,9.82c-1.05,2.14-1.89,4.38-3.16,6.41c-0.47,1.76-1.42,3.32-2.17,4.95
	c-3.07,6.66-6.23,13.28-9.35,19.92c-4.3,9.17-8.59,18.34-12.88,27.52c-1.97,4.21-3.68,8.56-6.43,12.37
	c-1.36,1.89-2.85,3.67-4.65,5.19c-0.44,0.38-1.16,0.64-1.05,1.45c-0.32-0.06-0.6-0.02-0.7,0.35c-0.35-0.02-0.57,0.17-0.68,0.49
	c-1.62,1.01-3.31,1.91-5.04,2.72c-3.18,1.49-6.52,2.43-10.03,2.72c-2.45,0-4.91,0-7.36,0c-4.59-0.38-8.92-1.7-13.03-3.72
	c-9.91-4.88-17.08-12.5-21.62-22.48c-3.69-8.11-7.01-16.39-10.48-24.6c-14.81-35.05-29.62-70.1-44.41-105.15
	c-1.58-3.75-3.29-7.46-4.67-11.3C499.06,612.88,499.96,611.58,501.07,610.59z"/>
</svg>
