<?xml version="1.0" encoding="utf-8"?>
<!-- Generator: Adobe Illustrator 26.0.3, SVG Export Plug-In . SVG Version: 6.00 Build 0)  -->
<svg version="1.1" id="katman_1" xmlns="http://www.w3.org/2000/svg" xmlns:xlink="http://www.w3.org/1999/xlink" x="0px" y="0px"
	 viewBox="0 0 500 500" style="enable-background:new 0 0 500 500;" xml:space="preserve">
<style type="text/css">
	.st0{fill:url(#SVGID_1_);}
	.st1{fill:url(#SVGID_00000150103675930436510700000003467109862479202438_);}
	.st2{fill:url(#SVGID_00000147196937836230098800000001130733376393373859_);}
	.st3{fill:url(#SVGID_00000180364661030110650670000002444557050423577009_);}
	.st4{fill:url(#SVGID_00000044139722501312540800000012121880915923132830_);}
	.st5{fill:url(#SVGID_00000042718084065732318930000008392801810306580129_);}
	.st6{fill:url(#SVGID_00000176005483634532287420000005829315598069026220_);}
	.st7{fill:url(#SVGID_00000014594617349740550460000003102124001449719950_);}
	.st8{fill:url(#SVGID_00000045583806130687049270000002349013161940646590_);}
	.st9{fill:url(#SVGID_00000086681706414044273730000000524886179118570653_);}
	.st10{fill:url(#SVGID_00000166659918041426491190000000122591353544301728_);}
	.st11{fill:url(#SVGID_00000024713609403661268930000006800732974630095274_);}
	.st12{fill:url(#SVGID_00000163780756200064289950000008648040355068788354_);}
	.st13{fill:#FFFDFD;}
	.st14{fill:url(#SVGID_00000138551661319450561910000010788571473104316861_);}
	.st15{fill:url(#SVGID_00000076597962420506962320000017906280150770279567_);}
	.st16{fill:url(#SVGID_00000109018864773425321850000001367087343382693271_);}
	.st17{fill:url(#SVGID_00000152953030556019677090000002448991272792634541_);}
	.st18{fill:url(#SVGID_00000076596613979337044460000010682162359420177312_);}
	.st19{fill:url(#SVGID_00000119101253157694403890000009742349748657950089_);}
</style>
<linearGradient id="SVGID_1_" gradientUnits="userSpaceOnUse" x1="114.0072" y1="-54.6228" x2="350.8916" y2="492.0334">
	<stop  offset="0.0146" style="stop-color:#EDEBDF"/>
	<stop  offset="0.0419" style="stop-color:#EEECE1"/>
	<stop  offset="0.5006" style="stop-color:#FFFFFF"/>
	<stop  offset="0.6562" style="stop-color:#FCFBF8"/>
	<stop  offset="0.849" style="stop-color:#F1EFE5"/>
	<stop  offset="0.8966" style="stop-color:#EDEBDF"/>
</linearGradient>
<path class="st0" d="M60.69,350.76l0-180.98c0-54.6,44.68-99.28,99.28-99.28l180.98,0c54.6,0,99.28,44.67,99.28,99.28l0,180.98
	c0,54.6-44.68,99.28-99.28,99.28l-180.98,0C105.37,450.04,60.69,405.36,60.69,350.76z"/>
<linearGradient id="SVGID_00000181088462763256540170000002107177822776010165_" gradientUnits="userSpaceOnUse" x1="114.0072" y1="465.3772" x2="350.8916" y2="1012.0333">
	<stop  offset="0.0146" style="stop-color:#EDEBDF"/>
	<stop  offset="0.0419" style="stop-color:#EEECE1"/>
	<stop  offset="0.5006" style="stop-color:#FFFFFF"/>
	<stop  offset="0.6562" style="stop-color:#FCFBF8"/>
	<stop  offset="0.849" style="stop-color:#F1EFE5"/>
	<stop  offset="0.8966" style="stop-color:#EDEBDF"/>
</linearGradient>
<path style="fill:url(#SVGID_00000181088462763256540170000002107177822776010165_);" d="M60.69,870.76l0-180.98
	c0-54.6,44.68-99.28,99.28-99.28l180.98,0c54.6,0,99.28,44.67,99.28,99.28l0,180.98c0,54.6-44.68,99.28-99.28,99.28l-180.98,0
	C105.37,970.04,60.69,925.36,60.69,870.76z"/>
<linearGradient id="SVGID_00000093175737828703891020000010119207935786507955_" gradientUnits="userSpaceOnUse" x1="121.4486" y1="278.3143" x2="365.5739" y2="278.3143">
	<stop  offset="0" style="stop-color:#EC673E"/>
	<stop  offset="0.5823" style="stop-color:#E53E22"/>
	<stop  offset="1" style="stop-color:#E12314"/>
</linearGradient>
<path style="fill:url(#SVGID_00000093175737828703891020000010119207935786507955_);" d="M338.14,199.87
	c7.64,2.98,15.23,6.03,22.17,10.56c4.65,3.03,5.55,7.22,5.2,12.19c-0.63,8.9-3.32,17.3-5.98,25.74c-2.8,8.85-6.15,17.48-9.61,26.08
	c-1.63,4.06-3.41,8.07-5.25,12.05c-2.43,5.25-6.68,8.55-11.82,10.96c-12.91,6.04-25.79,12.17-38.67,18.28
	c-13.5,6.39-27,12.77-40.48,19.2c-12.73,6.07-25.42,12.23-38.14,18.31c-10.73,5.12-21.35,10.52-32.28,15.16
	c-9.56,4.06-21.55,0.7-26.75-10.03c-7.37-15.2-14.26-30.64-21.45-45.93c-4.06-8.62-8.18-17.21-12.07-25.9
	c-4.14-9.24,0.38-21.98,9.62-26.39c13.93-6.63,27.94-13.09,41.9-19.66c11.7-5.51,23.36-11.1,35.07-16.6
	c15.42-7.24,30.88-14.4,46.31-21.63c9.3-4.36,18.6-8.72,27.85-13.18c6.5-3.13,13-3.25,19.77-0.86c5.98,2.11,12.12,3.79,18.16,5.72
	c2.32,0.74,4.59,1.63,6.88,2.45c0.02,0.84,0.1,1.68,0.04,2.52c-0.65,9.77-3.09,19.24-4.88,28.82c-2.62,1.37-3.49,5.63-1.83,8.48
	c1.5,2.58,4.66,3.67,7.72,2.87c1.45-0.38,2.1-1.82,3.52-2.01c1.32,0.62,1.91,0.21,1.97-1.25c0.05-1.26,0.28-2.51,0.43-3.77
	C336.82,221.35,337.47,210.61,338.14,199.87z M311.06,280.28c0.06-2.25-0.39-4.4-1.32-6.4c-7.75-16.61-15.46-33.24-23.35-49.79
	c-3.98-8.35-13.55-11.54-21.92-7.62c-11.11,5.2-22.22,10.4-33.33,15.59c-25.99,12.16-52,24.3-77.98,36.48
	c-8.28,3.88-11.82,13.35-8,21.6c7.51,16.26,15.11,32.47,22.72,48.68c4.37,9.3,13.69,12.56,23.05,8.18
	c15.32-7.17,30.66-14.32,45.98-21.49c21.65-10.14,43.31-20.24,64.92-30.46C307.96,292.13,310.78,286.93,311.06,280.28z"/>
<linearGradient id="SVGID_00000036231975168984652440000009406529079457213834_" gradientUnits="userSpaceOnUse" x1="331.9697" y1="171.2573" x2="351.8264" y2="139.8512">
	<stop  offset="0.0146" style="stop-color:#EDEBDF"/>
	<stop  offset="0.0419" style="stop-color:#EEECE1"/>
	<stop  offset="0.5006" style="stop-color:#FFFFFF"/>
	<stop  offset="0.6562" style="stop-color:#FCFBF8"/>
	<stop  offset="0.849" style="stop-color:#F1EFE5"/>
	<stop  offset="0.8966" style="stop-color:#EDEBDF"/>
</linearGradient>
<path style="fill:url(#SVGID_00000036231975168984652440000009406529079457213834_);" d="M338.14,199.87
	c-0.67,10.74-1.31,21.48-2.59,32.17c-0.15,1.26-0.38,2.51-0.43,3.77c-0.06,1.46-0.65,1.87-1.97,1.25c-1.93-1.67-4.22-2.79-6.47-3.89
	c-2.43-1.19-4.05-2.5-2.95-5.45c1.79-9.58,4.23-19.05,4.88-28.82c0.06-0.84-0.03-1.68-0.04-2.52c0.38-6.79,0.23-13.53-1.43-20.19
	c-0.8-3.2-2.85-4.69-5.92-5.19c-6.38-1.03-12.49,0.42-18.59,1.94c-1.02,0.25-2.03,0.57-3.18,0.89c0.02-4.84-2.41-8.81-4.19-13
	c-0.31-0.72-0.85-1.42,0.47-1.7c9.33-1.92,18.71-3.16,28.1-0.69c8.6,2.26,12.21,7.17,13.45,16.86
	C338.33,183.48,337.97,191.68,338.14,199.87z"/>
<linearGradient id="SVGID_00000129185565712904523370000005606117781921751192_" gradientUnits="userSpaceOnUse" x1="321.0526" y1="233.5309" x2="333.1487" y2="233.5309">
	<stop  offset="0.4134" style="stop-color:#EC673E"/>
	<stop  offset="0.755" style="stop-color:#E53E22"/>
	<stop  offset="1" style="stop-color:#E12314"/>
</linearGradient>
<path style="fill:url(#SVGID_00000129185565712904523370000005606117781921751192_);" d="M323.73,227.73
	c-1.1,2.95,0.53,4.26,2.95,5.45c2.24,1.1,4.54,2.22,6.47,3.89c-1.43,0.2-2.07,1.63-3.52,2.01c-3.06,0.8-6.22-0.29-7.72-2.87
	C320.24,233.36,321.11,229.1,323.73,227.73z"/>
<linearGradient id="SVGID_00000049903170280557687820000000923750122353381510_" gradientUnits="userSpaceOnUse" x1="157.6371" y1="312.2394" x2="274.2603" y2="263.9815">
	<stop  offset="0" style="stop-color:#EC673E"/>
	<stop  offset="0.5823" style="stop-color:#E53E22"/>
	<stop  offset="1" style="stop-color:#E12314"/>
</linearGradient>
<path style="fill:url(#SVGID_00000049903170280557687820000000923750122353381510_);" d="M218.17,300.33
	c-0.72-8.37-1.37-16.39-2.1-24.41c-0.35-3.83-0.41-3.82,3.07-5.45c4.47-2.09,4.47-2.09,7.99,1.42c5.54,5.52,11.05,11.06,16.63,16.54
	c1.12,1.1,1.28,1.67-0.39,2.28c-1.65,0.61-3.24,1.41-4.78,2.25c-1.32,0.72-2.35,0.68-3.17-0.68c-0.87-1.46-1.94-1.82-3.43-0.78
	c-0.74,0.51-1.63,0.84-2.48,1.18c-2.32,0.91-4.52,1.83-3.19,5.07c0.3,0.74-0.32,1.09-0.96,1.38c-4.29,1.98-8.59,3.93-12.83,6.02
	c-1.28,0.63-1.92,0.27-2.54-0.79c-0.79-1.33-1.59-2.67-2.47-3.94c-1.62-2.32-2.64-2.57-5.19-1.44c-3.69,1.64-3.69,1.64-1.94,5.38
	c0.66,1.4,1.25,2.83,1.94,4.22c0.4,0.82,0.26,1.27-0.61,1.62c-1.24,0.5-2.42,1.13-3.64,1.68c-3.36,1.51-3.37,1.51-4.88-1.73
	c-3.24-6.97-6.42-13.97-9.75-20.89c-0.64-1.34-0.55-1.88,0.82-2.49c4.83-2.15,9.56-4.53,14.41-6.61c5.62-2.41,10.74,0.37,11.88,6.24
	c0.31,1.6,0.04,3.08-0.63,4.54c-0.2,0.44-0.78,1.1,0.21,1.3c3.48,0.71,4.95,3.47,6.48,6.2
	C216.93,299.03,217.19,299.67,218.17,300.33z M202.61,290.3c-0.01-1.87-1.51-3.06-3.27-2.66c-1.73,0.39-3.24,1.32-4.85,2.03
	c-0.69,0.3-0.7,0.62-0.46,1.29c1.57,4.31,1.56,4.32,5.71,2.3c0.63-0.31,1.24-0.66,1.82-1.05
	C202.25,291.74,202.55,291.03,202.61,290.3z M223.91,279.19c0.22,2.04,0.35,3.56,0.55,5.08c0.5,3.83,0.86,4,4.2,1.98
	c0.06-0.04,0.12-0.08,0.18-0.11c0.63-0.27,0.66-0.68,0.24-1.15C227.47,283.17,225.85,281.36,223.91,279.19z"/>
<linearGradient id="SVGID_00000130613308979555821000000003447211698052724894_" gradientUnits="userSpaceOnUse" x1="158.3835" y1="314.0431" x2="275.0067" y2="265.7852">
	<stop  offset="0" style="stop-color:#EC673E"/>
	<stop  offset="0.5823" style="stop-color:#E53E22"/>
	<stop  offset="1" style="stop-color:#E12314"/>
</linearGradient>
<path style="fill:url(#SVGID_00000130613308979555821000000003447211698052724894_);" d="M181.66,301.89
	c5.86,1.21,8.58,4.57,7.84,9.56c-0.51,3.44-2.8,5.64-5.76,7.1c-4.54,2.24-9.18,4.29-13.75,6.48c-0.88,0.42-1.29,0.41-1.75-0.58
	c-3.6-7.79-7.27-15.56-10.89-23.34c-0.3-0.64-0.87-1.4,0.31-1.9c5.44-2.29,10.52-5.46,16.21-7.15c4.81-1.43,9.13,1.97,8.93,6.69
	C182.76,299.83,182.37,300.8,181.66,301.89z"/>
<linearGradient id="SVGID_00000076602357914739675030000004560766952643818376_" gradientUnits="userSpaceOnUse" x1="172.069" y1="311.7339" x2="180.6958" y2="311.7339">
	<stop  offset="0.0146" style="stop-color:#EDEBDF"/>
	<stop  offset="0.0419" style="stop-color:#EEECE1"/>
	<stop  offset="0.5006" style="stop-color:#FFFFFF"/>
	<stop  offset="0.6562" style="stop-color:#FCFBF8"/>
	<stop  offset="0.849" style="stop-color:#F1EFE5"/>
	<stop  offset="0.8966" style="stop-color:#EDEBDF"/>
</linearGradient>
<path style="fill:url(#SVGID_00000076602357914739675030000004560766952643818376_);" d="M180.7,310.74
	c0.01-1.76-1.41-2.93-3.11-2.47c-0.88,0.24-1.7,0.67-2.53,1.05c-3.65,1.67-3.64,1.69-1.63,5.19c0.32,0.56,0.64,0.99,1.3,0.67
	c1.65-0.8,3.29-1.6,4.89-2.49C180.31,312.3,180.68,311.59,180.7,310.74z"/>
<linearGradient id="SVGID_00000023244100746189632960000003779930666388598921_" gradientUnits="userSpaceOnUse" x1="167.8998" y1="302.7581" x2="175.4998" y2="302.7581">
	<stop  offset="0.0146" style="stop-color:#EDEBDF"/>
	<stop  offset="0.0419" style="stop-color:#EEECE1"/>
	<stop  offset="0.5006" style="stop-color:#FFFFFF"/>
	<stop  offset="0.6562" style="stop-color:#FCFBF8"/>
	<stop  offset="0.849" style="stop-color:#F1EFE5"/>
	<stop  offset="0.8966" style="stop-color:#EDEBDF"/>
</linearGradient>
<path style="fill:url(#SVGID_00000023244100746189632960000003779930666388598921_);" d="M173.53,299.75
	c-1.96,0.34-3.69,1.23-5.23,2.25c-1.02,0.67,0.21,1.74,0.56,2.57c0.19,0.45,0.18,1.53,1.14,1.1c1.65-0.75,3.43-1.29,4.86-2.47
	c0.72-0.59,0.81-1.41,0.44-2.3C174.94,300.04,174.32,299.75,173.53,299.75z"/>
<linearGradient id="SVGID_00000108994645918800404010000007898073344303214999_" gradientUnits="userSpaceOnUse" x1="156.8624" y1="310.3671" x2="273.4856" y2="262.1092">
	<stop  offset="0" style="stop-color:#EC673E"/>
	<stop  offset="0.5823" style="stop-color:#E53E22"/>
	<stop  offset="1" style="stop-color:#E12314"/>
</linearGradient>
<path style="fill:url(#SVGID_00000108994645918800404010000007898073344303214999_);" d="M255.3,269.05
	c-1.21-3.92-3.32-7.44-4.98-11.17c-0.56-1.25-0.6-1.83,0.79-2.35c1.64-0.62,3.22-1.42,4.79-2.23c0.93-0.48,1.44-0.42,1.93,0.63
	c3.64,7.87,7.32,15.72,11.03,23.56c0.42,0.88,0.17,1.23-0.61,1.58c-1.99,0.9-3.98,1.82-5.92,2.8c-0.83,0.42-1.29-0.01-1.88-0.43
	c-3.78-2.72-7.57-5.41-11.36-8.1c-0.38-0.27-0.79-0.49-1.75-1.09c1.97,4.24,3.62,7.95,5.42,11.58c0.72,1.46,0.88,2.35-0.98,2.96
	c-1.93,0.63-3.83,2.68-5.54,2.17c-1.61-0.49-1.9-3.23-2.74-4.99c-2.98-6.23-5.87-12.51-8.85-18.74c-0.56-1.18-0.49-1.91,0.81-2.38
	c0.92-0.34,1.91-0.65,2.69-1.22c2.79-2.05,5.09-1.58,7.6,0.69c2.45,2.21,5.29,3.98,7.97,5.93c0.49,0.35,0.9,0.91,1.63,0.78
	c-0.15,0.14-0.13,0.25,0.06,0.3c0.05,0.01,0.12-0.05,0.18-0.08C255.49,269.17,255.39,269.11,255.3,269.05z"/>
<linearGradient id="SVGID_00000017475168351791997810000017975188670204168606_" gradientUnits="userSpaceOnUse" x1="156.417" y1="309.2908" x2="273.0402" y2="261.033">
	<stop  offset="0" style="stop-color:#EC673E"/>
	<stop  offset="0.5823" style="stop-color:#E53E22"/>
	<stop  offset="1" style="stop-color:#E12314"/>
</linearGradient>
<path style="fill:url(#SVGID_00000017475168351791997810000017975188670204168606_);" d="M293.08,259.18
	c-0.07,5.78-2.98,9.3-7.43,11.64c-3.86,2.02-7.9,3.69-11.81,5.63c-1.1,0.55-1.49,0.19-1.91-0.73c-3.59-7.72-7.2-15.43-10.79-23.15
	c-0.28-0.6-0.83-1.31,0.2-1.77c5.08-2.25,9.88-5.19,15.23-6.74c4.65-1.34,8.63,0.22,11.75,3.86
	C291.19,251.27,292.82,255.18,293.08,259.18z"/>
<linearGradient id="SVGID_00000157289769661674441330000008870418759282201749_" gradientUnits="userSpaceOnUse" x1="272.013" y1="259.1594" x2="284.09" y2="259.1594">
	<stop  offset="0.0146" style="stop-color:#EDEBDF"/>
	<stop  offset="0.0419" style="stop-color:#EEECE1"/>
	<stop  offset="0.5006" style="stop-color:#FFFFFF"/>
	<stop  offset="0.6562" style="stop-color:#FCFBF8"/>
	<stop  offset="0.849" style="stop-color:#F1EFE5"/>
	<stop  offset="0.8966" style="stop-color:#EDEBDF"/>
</linearGradient>
<path style="fill:url(#SVGID_00000157289769661674441330000008870418759282201749_);" d="M276.99,252.14
	c-1.08-0.04-2.52,0.73-4.01,1.36c-0.9,0.38-1.25,0.84-0.69,1.92c1.34,2.56,2.5,5.2,3.71,7.83c1.64,3.57,1.63,3.58,5.02,1.62
	c2.72-1.57,3.6-3.77,2.78-7C282.95,254.5,280.44,252.18,276.99,252.14z"/>
<linearGradient id="SVGID_00000151534643180521929750000016215142077392489858_" gradientUnits="userSpaceOnUse" x1="193.8925" y1="291.06" x2="202.605" y2="291.06">
	<stop  offset="0.0146" style="stop-color:#EDEBDF"/>
	<stop  offset="0.0419" style="stop-color:#EEECE1"/>
	<stop  offset="0.5006" style="stop-color:#FFFFFF"/>
	<stop  offset="0.6562" style="stop-color:#FCFBF8"/>
	<stop  offset="0.849" style="stop-color:#F1EFE5"/>
	<stop  offset="0.8966" style="stop-color:#EDEBDF"/>
</linearGradient>
<path style="fill:url(#SVGID_00000151534643180521929750000016215142077392489858_);" d="M202.61,290.3
	c-0.05,0.73-0.36,1.44-1.04,1.9c-0.58,0.39-1.19,0.75-1.82,1.05c-4.15,2.02-4.14,2.01-5.71-2.3c-0.24-0.67-0.24-0.99,0.46-1.29
	c1.6-0.7,3.11-1.63,4.85-2.03C201.1,287.24,202.59,288.43,202.61,290.3z"/>
<path class="st13" d="M255.3,269.05c0.09,0.06,0.19,0.12,0.28,0.19c-0.06,0.03-0.13,0.1-0.18,0.08c-0.19-0.05-0.21-0.16-0.06-0.3
	C255.34,269.01,255.3,269.05,255.3,269.05z"/>
<g>
	<g>
		
			<linearGradient id="SVGID_00000037689244039828288100000010133055014050338199_" gradientUnits="userSpaceOnUse" x1="139.9934" y1="824.8167" x2="276.7107" y2="824.8167">
			<stop  offset="0" style="stop-color:#EC673E"/>
			<stop  offset="0.5823" style="stop-color:#E53E22"/>
			<stop  offset="1" style="stop-color:#E12314"/>
		</linearGradient>
		<path style="fill:url(#SVGID_00000037689244039828288100000010133055014050338199_);" d="M205.44,758.94
			c-2.94-1.07-6.24,1.4-15.05,8.58c-10.78,8.78-9.76,8.3-11.02,9.04c-8.73,5.14-12.48,1.99-21.08,7.18
			c-4.58,2.77-7.26,5.92-10.45,9.69c-4.43,5.23-8.01,9.58-7.85,15.34c0.03,1.07,0.14,3.89,1.98,6.68c2,3.04,4.88,4.29,5.88,4.7
			c4.45,1.85,9.77,1.28,9.77,1.28c0,0-1.95,5.16-2.95,8.05c-2.72,7.82-4.09,11.74-3.4,14.95c0.7,3.29,2.97,7.34,6.59,8.95
			c0,0,1.66,0.74,8,1.41c0,0-0.04,0.34-0.11,1.02c-1.56,14.42,0.35,18.76,0.35,18.76c0.39,0.89,2.86,6.29,8.95,8.24
			c1.04,0.33,5.06,1.55,9.47-0.32c6.22-2.64,7.84-9.12,8.02-9.86c1.36,4.53,3.3,7.91,4.88,10.18c2.44,3.52,4.16,5.97,7.53,7.3
			c4.79,1.89,9.38-0.06,10.36-0.47c1.06-0.45,4.14-1.8,6.36-5.18c1.73-2.64,2.05-5.16,2.12-5.89c0.1-1.04,0.25-3.8-2.08-8.68
			c-3.31-6.96-6.18-6.77-6.37-10.15c-0.19-3.29,2.48-6.01,7.83-11.46c2.64-2.69,4.78-4.34,7.21-6.21
			c6.64-5.09,10.02-7.62,12.78-6.67c2.45,0.84,3.56,3.71,4.4,5.86c0.31,0.79,1.69,4.54,0.57,9.55c-0.42,1.87-0.99,3.34-5.84,10.48
			c-5.46,8.04-6.28,9.36-6.68,11.8c-0.21,1.29-0.71,4.61,1,8.15c1.94,4.02,5.46,5.7,6.5,6.19c0.39,0.18,5.23,2.32,10.57,0.54
			c3.18-1.06,5.66-4.28,10.51-10.66c8.06-10.62,12.09-16.02,12.46-20.35c0.18-2.16-0.08-4.34-0.6-8.68
			c-0.42-3.56-0.69-3.93-2.29-11.97c-1.56-7.89-1.82-10.14-3.62-10.83c-1.29-0.49-2.83,0.03-3.76,0.77
			c-2.33,1.84-1.9,5.82-1.29,10.88c0.23,1.89,0.34,1.93,1.54,8c1.5,7.55,1.62,8.99,1.18,10.83c-0.37,1.54-1.35,3.07-3.3,6.12
			c-2.11,3.32-2.94,4.11-6.09,8.4c-5.01,6.83-6.14,9.21-8.85,9.5c-0.56,0.06-2.11,0.13-3.43-0.81c-1.83-1.31-2.02-3.71-2.05-4.08
			c-0.24-3.56,2.91-5.03,6.5-10.19c3.94-5.66,5.11-11.01,5.39-12.44c0.18-0.89,0.96-5.08,0.18-10.53
			c-0.65-4.52-1.14-7.93-3.95-10.84c-3.32-3.44-7.7-3.91-8.85-4.01c-4.19-0.38-7.3,1.18-10.88,2.98c-3.14,1.58-5.44,3.44-9.91,7.11
			c-4.52,3.71-6.79,5.57-9.14,8.39c-3.02,3.62-5.67,6.8-6.23,11.59c-0.13,1.08-0.48,4.41,1.03,7.98c1.52,3.62,3.63,4.37,5.68,9.2
			c1.53,3.6,1.05,4.83,0.91,5.16c-1.04,2.37-4.86,3.5-7.34,2.4c-1.47-0.65-1.85-1.81-3.42-4.86c-0.63-1.22-3.8-7.38-7.36-12.37
			c-2.35-3.3-3.32-3.93-3.53-5.92c-0.25-2.5,0.96-4.69,2.17-6.87c0.69-1.24,1.34-2.15,4.2-5.63c2.16-2.64,3.81-4.59,4.45-5.35
			c7.84-9.29,2.12-2.92,8.26-10.51c1.33-1.64,2.77-3.39,2.79-5.81c0.01-0.55,0.02-2.12-1.06-3.14c-1.37-1.3-3.57-0.85-4.06-0.76
			c-3.3,0.66-4.07,3.74-7.31,7.48c-1.8,2.07-1.64,1.21-13.81,10.65c-1.35,1.05-3.31,2.61-4.31,5.31c-0.7,1.9-0.53,3.48-0.5,5.14
			c0.08,5.5,0.35,10.14,0.47,13.62c0.23,6.81-0.14,8.6-1.44,10.03c-0.31,0.34-2.03,2.24-4.46,2.12c-0.25-0.01-1.69-0.11-2.84-1.12
			c-1.67-1.48-1.41-3.76-1.36-9.36c0.03-4.19-0.13-1.29-0.12-9.39c0.01-4.16,0.06-3.73,0.08-8.61c0.03-6.71-0.06-6.73,0.15-7.45
			c0.97-3.33,3.44-4.41,9.85-9.01c6.82-4.9,4.27-3.84,12.01-9.54c5.49-4.04,9.16-6.33,9.12-9.76c-0.01-0.57-0.02-1.72-0.8-2.38
			c-2.15-1.81-7.99,1.95-15.96,7.19c-3.88,2.55-7.45,5.35-14.6,10.96c-5.13,4.03-6.18,5-7.04,6.87c-2.41,5.21-1.36,12.8-1.36,12.79
			c0,0-2.81-0.41-4.33-1.88c-1.17-1.12-1.61-2.9-1.47-4.33c0.18-1.82,1.24-2.27,2.53-4.82c0.44-0.87,0.84-2.28,1.63-5.06
			c1.37-4.83,1.36-5.4,2.04-7.51c0.6-1.85,1.48-4.56,2.86-6.7c1.08-1.68,2.67-3.31,9.84-6.91c8.61-4.32,13.97-5.81,15.37-9.53
			c0.21-0.55,0.81-2.14,0.08-3.46c-0.13-0.24-0.72-1.2-2.61-1.69c-3.62-0.93-6.65,1.25-12.5,2.94c-6.06,1.75-7.69,0.83-11.41,3.2
			c-1.64,1.05-2.64,2.07-4.3,3.77c-5.05,5.15-5.49,8.33-8.68,8.92c-0.15,0.03-2.73,0.47-4.34-1.12c-1.24-1.21-1.24-2.97-1.25-3.58
			c-0.02-2.91,1.87-5.14,3.27-6.72c5.08-5.75,7.61-8.62,9.89-10.05c8.79-5.51,13.62-1.46,22.13-7.46c2.45-1.73,1.81-1.9,6.3-5.43
			c4.11-3.23,6.51-4.56,11.4-8.42c5.68-4.48,6.58-5.96,6.47-7.47C208.51,761.3,207.15,759.56,205.44,758.94z"/>
		
			<linearGradient id="SVGID_00000097462201506203946470000013847008029899157385_" gradientUnits="userSpaceOnUse" x1="139.625" y1="824.8145" x2="277.0793" y2="824.8145">
			<stop  offset="0" style="stop-color:#EC673E"/>
			<stop  offset="0.5823" style="stop-color:#E53E22"/>
			<stop  offset="1" style="stop-color:#E12314"/>
		</linearGradient>
		<path style="fill:url(#SVGID_00000097462201506203946470000013847008029899157385_);" d="M209.34,891.3
			c-1.58,0-3.11-0.28-4.52-0.83c-3.51-1.39-5.27-3.92-7.7-7.43c-1.93-2.78-3.46-5.84-4.56-9.12c-0.77,2.29-2.86,6.8-7.89,8.93
			c-2.99,1.27-6.45,1.38-9.73,0.33c-5.91-1.89-8.51-6.94-9.17-8.44c-0.08-0.18-1.93-4.59-0.38-18.94l0.07-0.65
			c-6.03-0.66-7.68-1.37-7.75-1.4c-3.94-1.75-6.13-6.05-6.8-9.2c-0.71-3.32,0.67-7.27,3.41-15.15c0.8-2.31,2.22-6.1,2.75-7.51
			c-1.84,0.21-6.18-0.04-9.36-1.36c-2.62-1.09-4.65-2.71-6.05-4.84c-1.93-2.95-2.01-5.91-2.04-6.88
			c-0.17-6.02,3.77-10.67,7.93-15.59c3.17-3.74,5.9-6.97,10.54-9.77c4.38-2.65,7.58-3.16,10.67-3.67c3.01-0.49,6.13-1,10.42-3.52
			c0.56-0.33,0.64-0.4,1.66-1.27c1.16-0.99,3.57-3.05,9.32-7.74c8.59-7.01,12.2-9.83,15.41-8.64l0,0c1.82,0.66,3.3,2.53,3.44,4.34
			c0.13,1.68-0.8,3.2-6.61,7.78c-2.57,2.03-4.45,3.35-6.26,4.63c-1.64,1.16-3.19,2.25-5.14,3.79c-2.38,1.87-3.29,2.78-4.02,3.5
			c-0.63,0.62-1.12,1.11-2.29,1.94c-4.45,3.14-7.99,3.59-11.41,4.02c-3.21,0.4-6.53,0.82-10.74,3.46c-2.23,1.4-4.77,4.27-9.81,9.98
			c-1.62,1.83-3.2,3.84-3.18,6.48c0.01,0.62,0.02,2.22,1.14,3.32c1.47,1.44,3.92,1.03,4.02,1.01c1.74-0.33,2.63-1.53,4.08-3.52
			c1.04-1.42,2.33-3.19,4.4-5.3c1.68-1.71,2.69-2.74,4.37-3.82c2.3-1.47,3.85-1.72,6-2.06c1.39-0.22,3.11-0.49,5.5-1.18
			c1.84-0.53,3.4-1.11,4.79-1.63c3.09-1.15,5.32-1.98,7.91-1.31c1.83,0.47,2.56,1.37,2.84,1.86c0.81,1.46,0.16,3.2-0.05,3.77
			c-1.11,2.95-4.58,4.56-9.83,7c-1.69,0.79-3.62,1.68-5.72,2.73c-7.28,3.65-8.7,5.23-9.69,6.78c-1.36,2.12-2.24,4.82-2.82,6.61
			c-0.33,1.03-0.5,1.69-0.75,2.69c-0.25,1-0.6,2.37-1.29,4.81c-0.77,2.71-1.19,4.21-1.66,5.13c-0.53,1.05-1.03,1.76-1.43,2.33
			c-0.58,0.82-0.96,1.36-1.06,2.35c-0.11,1.14,0.17,2.88,1.36,4.03c1.05,1.01,2.81,1.5,3.65,1.69c-0.28-2.07-0.55-8.17,1.45-12.49
			c0.92-2,2.1-3.04,7.15-7.01c7.17-5.63,10.74-8.44,14.63-10.98c8.94-5.87,14.11-9.09,16.4-7.16c0.91,0.76,0.93,2.04,0.93,2.66
			c0.04,3.27-3.03,5.51-7.68,8.9c-0.51,0.37-1.04,0.76-1.59,1.16c-3.87,2.85-5.18,4.03-6.33,5.06c-1.16,1.04-2.26,2.03-5.68,4.48
			c-1.23,0.88-2.31,1.63-3.26,2.29c-4.03,2.8-5.69,3.95-6.44,6.52c-0.13,0.45-0.13,0.58-0.13,2.8c0,1.02,0,2.46-0.01,4.55
			c-0.01,2.38-0.03,3.5-0.04,4.5c-0.02,1.05-0.03,1.98-0.03,4.11c-0.01,4.59,0.04,5.62,0.08,6.45c0.03,0.63,0.05,1.12,0.04,2.94
			c-0.01,0.68-0.01,1.31-0.02,1.9c-0.05,4.11-0.08,5.99,1.26,7.18c1.03,0.91,2.35,1.02,2.61,1.03c2.01,0.08,3.59-1.36,4.17-2
			c1.19-1.31,1.57-2.98,1.34-9.77c-0.04-1.1-0.09-2.32-0.14-3.65c-0.12-2.91-0.26-6.21-0.32-9.97c0-0.24-0.01-0.48-0.02-0.72
			c-0.04-1.41-0.08-2.87,0.54-4.55c1.05-2.85,3.17-4.49,4.43-5.47c5.96-4.62,8.92-6.75,10.69-8.01c1.8-1.29,2.18-1.56,3.07-2.59
			c1.03-1.19,1.82-2.33,2.51-3.33c1.46-2.12,2.62-3.79,5-4.27c1.85-0.38,3.41-0.07,4.39,0.85c1.2,1.13,1.18,2.84,1.17,3.41
			c-0.02,2.51-1.5,4.35-2.81,5.96l-0.06,0.07c-2.78,3.44-3.12,3.99-3.38,4.44c-0.35,0.58-0.6,0.99-4.88,6.08l-0.28,0.33
			c-0.77,0.92-2.27,2.7-4.18,5.02c-2.87,3.51-3.5,4.39-4.16,5.58c-1.22,2.2-2.37,4.27-2.13,6.65c0.14,1.35,0.64,2,1.84,3.56
			c0.45,0.59,0.99,1.29,1.62,2.18c2.3,3.23,4.93,7.64,7.39,12.42c0.23,0.45,0.44,0.86,0.63,1.24c1.05,2.09,1.49,2.95,2.62,3.45
			c1.21,0.54,2.86,0.52,4.33-0.04c1.21-0.47,2.13-1.26,2.53-2.17c0.38-0.86,0.05-2.59-0.91-4.87c-1.08-2.54-2.15-3.91-3.19-5.23
			c-0.9-1.15-1.76-2.24-2.49-3.97c-1.04-2.48-1.4-5.23-1.05-8.17c0.57-4.9,3.23-8.09,6.31-11.78c2.37-2.85,4.65-4.71,9.18-8.44
			c4.35-3.57,6.74-5.54,9.98-7.16c3.64-1.83,6.79-3.42,11.08-3.01c3.62,0.33,6.84,1.8,9.09,4.12c2.89,2.99,3.4,6.54,4.05,11.04
			c0.73,5.09,0.12,9.14-0.18,10.65c-0.49,2.48-1.85,7.4-5.45,12.57c-1.27,1.83-2.47,3.17-3.52,4.35c-1.85,2.07-3.06,3.44-2.92,5.6
			c0.04,0.61,0.3,2.67,1.9,3.81c1.2,0.86,2.63,0.8,3.17,0.75c2.04-0.22,3.16-1.79,6.15-5.97c0.7-0.98,1.51-2.11,2.45-3.39
			c1.1-1.5,1.92-2.58,2.61-3.48c1.26-1.66,2.1-2.76,3.46-4.9l0.12-0.19c1.85-2.91,2.78-4.37,3.13-5.82
			c0.41-1.71,0.34-2.98-1.18-10.67c-0.47-2.35-0.77-3.79-0.98-4.79c-0.33-1.59-0.43-2.06-0.57-3.24c-0.6-4.94-1.11-9.2,1.43-11.21
			c1.02-0.8,2.69-1.37,4.12-0.82c1.81,0.69,2.19,2.6,3.43,8.93l0.43,2.18c0.58,2.94,0.99,4.86,1.29,6.28c0.52,2.44,0.73,3.45,1,5.72
			c0.52,4.36,0.78,6.55,0.6,8.76c-0.38,4.52-4.69,10.21-12.53,20.54c-4.73,6.24-7.34,9.67-10.68,10.79
			c-5.42,1.81-10.3-0.31-10.84-0.56c-3.84-1.77-5.75-4.44-6.68-6.36c-1.79-3.71-1.22-7.22-1.03-8.37c0.41-2.49,1.23-3.82,6.74-11.95
			c4.93-7.26,5.39-8.6,5.78-10.35c1.02-4.54-0.05-8.04-0.55-9.34c-0.8-2.05-1.89-4.86-4.18-5.65c-2.53-0.87-5.64,1.4-12.44,6.61
			c-2.32,1.78-4.51,3.46-7.17,6.17c-5.27,5.36-7.91,8.05-7.73,11.18c0.09,1.53,0.76,2.25,1.86,3.44c1.17,1.26,2.77,2.98,4.47,6.57
			c1.64,3.45,2.36,6.44,2.11,8.87c-0.12,1.2-0.56,3.59-2.18,6.05c-1.54,2.35-3.73,4.14-6.52,5.32
			C213.41,890.86,211.33,891.3,209.34,891.3z M192.5,871.2l0.4,1.33c1.09,3.65,2.72,7.04,4.83,10.08c2.36,3.4,4.07,5.86,7.37,7.17
			c3,1.18,6.58,1.02,10.08-0.47c2.65-1.12,4.74-2.82,6.19-5.04c1.53-2.33,1.95-4.59,2.06-5.72c0.23-2.3-0.46-5.15-2.04-8.48
			c-1.66-3.48-3.21-5.16-4.35-6.38c-1.14-1.22-1.96-2.11-2.06-3.9c-0.2-3.45,2.52-6.22,7.94-11.74c2.7-2.76,4.91-4.45,7.25-6.24
			c6.53-5,10.12-7.77,13.13-6.72c2.61,0.9,3.77,3.89,4.63,6.08c0.53,1.36,1.64,5.03,0.59,9.77c-0.45,2-1.14,3.61-5.89,10.61
			c-5.44,8.01-6.24,9.31-6.62,11.65c-0.18,1.1-0.72,4.43,0.97,7.93c0.87,1.82,2.68,4.33,6.32,6.01c0.51,0.23,5.14,2.24,10.3,0.53
			c3-1,5.34-3.95,10.33-10.53c7.75-10.22,12.02-15.85,12.38-20.16c0.18-2.13-0.08-4.3-0.59-8.61c-0.27-2.24-0.47-3.17-0.99-5.66
			c-0.3-1.42-0.71-3.34-1.29-6.29l-0.43-2.18c-1.18-6.02-1.53-7.83-2.96-8.37c-1.15-0.45-2.57,0.06-3.4,0.71
			c-2.21,1.75-1.72,5.82-1.15,10.54c0.14,1.14,0.24,1.61,0.56,3.18c0.21,1,0.51,2.45,0.98,4.8c1.46,7.39,1.64,9.03,1.17,10.99
			c-0.37,1.57-1.32,3.06-3.22,6.04l-0.12,0.19c-1.38,2.17-2.22,3.27-3.5,4.95c-0.69,0.9-1.5,1.97-2.6,3.47
			c-0.94,1.28-1.74,2.4-2.44,3.38c-3.13,4.37-4.3,6.01-6.66,6.27c-0.64,0.07-2.28,0.13-3.69-0.88c-1.86-1.33-2.15-3.67-2.2-4.36
			c-0.17-2.47,1.2-4.01,3.1-6.14c1.04-1.17,2.22-2.49,3.47-4.28c3.66-5.25,4.95-10.35,5.33-12.3c0.29-1.47,0.89-5.43,0.18-10.4
			c-0.65-4.53-1.13-7.81-3.85-10.63c-2.12-2.2-5.18-3.59-8.62-3.9c-4.07-0.36-7.13,1.16-10.67,2.94c-3.04,1.52-5.21,3.27-9.84,7.07
			c-4.5,3.69-6.76,5.55-9.09,8.34c-3.01,3.61-5.6,6.72-6.15,11.4c-0.33,2.81,0.01,5.44,1,7.8c0.69,1.64,1.51,2.69,2.39,3.8
			c1.02,1.3,2.18,2.77,3.29,5.4c1.08,2.54,1.38,4.37,0.91,5.45c-0.49,1.11-1.53,2.01-2.94,2.56c-1.66,0.64-3.49,0.65-4.89,0.03
			c-1.37-0.61-1.87-1.61-2.98-3.8c-0.19-0.37-0.39-0.78-0.63-1.23c-2.44-4.74-5.05-9.12-7.33-12.33c-0.63-0.88-1.16-1.58-1.61-2.16
			c-1.22-1.59-1.83-2.38-1.99-3.94c-0.27-2.62,1-4.88,2.21-7.08c0.69-1.25,1.33-2.14,4.24-5.7c1.9-2.33,3.41-4.11,4.18-5.03
			l0.28-0.33c4.25-5.04,4.5-5.46,4.82-5.98c0.29-0.49,0.63-1.04,3.44-4.52l0.06-0.07c1.29-1.6,2.63-3.25,2.65-5.5
			c0.01-0.54,0.02-1.95-0.94-2.86c-0.8-0.76-2.13-0.99-3.73-0.66c-2.09,0.42-3.12,1.9-4.54,3.96c-0.7,1.02-1.5,2.17-2.56,3.39
			c-0.95,1.09-1.38,1.4-3.2,2.7c-1.77,1.27-4.72,3.39-10.67,8c-1.2,0.93-3.21,2.49-4.19,5.14c-0.57,1.55-0.54,2.88-0.5,4.28
			c0.01,0.24,0.01,0.48,0.02,0.73c0.06,3.75,0.2,7.05,0.32,9.95c0.06,1.33,0.11,2.55,0.15,3.66c0.22,6.59-0.1,8.71-1.53,10.29
			c-0.62,0.69-2.28,2.25-4.51,2.25c-0.08,0-0.16,0-0.24-0.01c-0.42-0.02-1.87-0.16-3.06-1.21c-1.59-1.42-1.57-3.4-1.51-7.75
			c0.01-0.59,0.02-1.22,0.02-1.9c0.01-1.8-0.01-2.29-0.04-2.9c-0.04-0.84-0.09-1.88-0.08-6.48c0-2.14,0.02-3.07,0.03-4.12
			c0.02-1,0.03-2.12,0.04-4.49c0.01-2.09,0.01-3.53,0.01-4.54c0-2.27,0-2.46,0.16-3.01c0.82-2.82,2.67-4.1,6.73-6.91
			c0.95-0.66,2.03-1.41,3.26-2.29c3.38-2.43,4.47-3.4,5.62-4.43c1.17-1.05,2.49-2.23,6.39-5.1c0.55-0.4,1.08-0.79,1.59-1.16
			c4.47-3.25,7.42-5.4,7.38-8.29c-0.01-0.54-0.02-1.56-0.67-2.1c-1.97-1.66-8.25,2.44-15.52,7.21c-3.86,2.53-7.42,5.33-14.51,10.9
			c-5.28,4.14-6.18,5.02-7,6.79c-2.34,5.07-1.34,12.5-1.33,12.58l-0.36,0.05l-0.05,0.37c-0.12-0.02-2.94-0.45-4.53-1.98
			c-1.13-1.09-1.75-2.91-1.58-4.63c0.12-1.18,0.59-1.85,1.19-2.7c0.41-0.58,0.87-1.24,1.38-2.24c0.43-0.86,0.85-2.33,1.61-5
			c0.69-2.43,1.03-3.79,1.28-4.79c0.25-1.01,0.42-1.67,0.76-2.73c0.59-1.83,1.48-4.59,2.9-6.78c1.06-1.64,2.54-3.31,9.98-7.04
			c2.11-1.06,4.04-1.96,5.74-2.74c5.27-2.44,8.44-3.92,9.45-6.59c0.19-0.49,0.75-1.99,0.1-3.15c-0.17-0.31-0.75-1.09-2.37-1.51
			c-2.36-0.61-4.5,0.19-7.46,1.29c-1.39,0.52-2.98,1.11-4.84,1.65c-2.44,0.7-4.19,0.98-5.59,1.2c-2.14,0.34-3.55,0.56-5.72,1.96
			c-1.61,1.03-2.6,2.04-4.24,3.71c-2.03,2.07-3.31,3.81-4.33,5.22c-1.51,2.07-2.51,3.43-4.55,3.81c-0.3,0.05-2.95,0.46-4.67-1.22
			c-1.34-1.31-1.35-3.2-1.36-3.82c-0.02-3.15,2.1-5.55,3.36-6.99c5.09-5.76,7.65-8.66,9.97-10.12c4.34-2.72,7.74-3.15,11.03-3.57
			c3.49-0.44,6.78-0.85,11.08-3.89c1.12-0.79,1.57-1.24,2.2-1.86c0.75-0.74,1.67-1.66,4.09-3.56c1.96-1.54,3.52-2.64,5.17-3.81
			c1.81-1.27,3.67-2.59,6.23-4.61c5.48-4.33,6.43-5.8,6.33-7.15c-0.12-1.54-1.39-3.13-2.96-3.7l0,0c-2.7-0.99-5.81,1.27-14.69,8.52
			c-5.74,4.68-8.15,6.74-9.31,7.73c-1.04,0.89-1.15,0.98-1.76,1.34c-4.41,2.59-7.59,3.11-10.67,3.61c-3.16,0.51-6.14,1-10.4,3.57
			c-4.53,2.74-7.23,5.92-10.35,9.61c-4.25,5.02-7.92,9.35-7.76,15.1c0.02,0.92,0.1,3.73,1.92,6.5c1.31,2,3.23,3.54,5.71,4.56
			c4.36,1.82,9.54,1.27,9.59,1.26l0.04,0.34l0.35,0.15c-0.02,0.05-1.96,5.19-2.95,8.04c-2.7,7.75-4.05,11.63-3.39,14.75
			c0.69,3.22,2.93,7.16,6.38,8.69c0.01,0.01,1.73,0.73,7.89,1.38l0.37,0.04l-0.15,1.39c-1.53,14.09,0.3,18.52,0.32,18.57
			c0.63,1.43,3.11,6.24,8.72,8.03c3.12,1,6.39,0.89,9.22-0.31c6.01-2.54,7.64-8.89,7.8-9.61L192.5,871.2z"/>
	</g>
	
		<linearGradient id="SVGID_00000096766609059638704120000001979118381575092151_" gradientUnits="userSpaceOnUse" x1="223.4031" y1="750.2055" x2="223.4031" y2="750.2055">
		<stop  offset="0" style="stop-color:#EC673E"/>
		<stop  offset="0.5823" style="stop-color:#E53E22"/>
		<stop  offset="1" style="stop-color:#E12314"/>
	</linearGradient>
	<path style="fill:url(#SVGID_00000096766609059638704120000001979118381575092151_);" d="M223.4,750.21"/>
	
		<linearGradient id="SVGID_00000101085321605164606750000006170232318360763020_" gradientUnits="userSpaceOnUse" x1="244.1134" y1="750.7914" x2="244.6431" y2="750.7914">
		<stop  offset="0" style="stop-color:#EC673E"/>
		<stop  offset="0.5823" style="stop-color:#E53E22"/>
		<stop  offset="1" style="stop-color:#E12314"/>
	</linearGradient>
	<path style="fill:url(#SVGID_00000101085321605164606750000006170232318360763020_);" d="M244.64,750.59l-0.53,0.41
		C244.3,750.86,244.49,750.75,244.64,750.59z"/>
	
		<linearGradient id="SVGID_00000139261226858492815750000001074984066393187508_" gradientUnits="userSpaceOnUse" x1="224.5659" y1="741.111" x2="352.2043" y2="741.111">
		<stop  offset="0" style="stop-color:#EC673E"/>
		<stop  offset="0.5823" style="stop-color:#E53E22"/>
		<stop  offset="1" style="stop-color:#E12314"/>
	</linearGradient>
	<path style="fill:url(#SVGID_00000139261226858492815750000001074984066393187508_);" d="M346.71,743.74l-6.35,5.02l-58.82-59.28
		l4.8-6.08l-6.95-5.49l-43.2,54.64l7.83,7.83l-3.72,2.9h-10.79c-2.73,0-4.95,2.22-4.95,4.95s2.22,4.95,4.95,4.95h12.6
		c0.49,0,0.9-0.12,1.32-0.24c0.56-0.16,1.07-0.4,1.58-0.78l0.53-0.43l0,0l5.53-4.3l17.9,17.89l0.01-0.01l12.41,12.41l-4.81,6.18
		c-0.34,0.47-0.58,0.97-0.78,1.67c-0.09,0.3-0.2,0.7-0.2,1.19v12.6c0,2.73,2.22,4.95,4.95,4.95c2.73,0,4.95-2.22,4.95-4.95v-10.79
		l2.95-3.79l9.1,9.1l54.64-43.2L346.71,743.74z M270.14,703.9l5.88-7.43l57.36,57.81l-7.08,5.59L270.14,703.9z M259.44,717.43
		l5.17-6.54l54.69,54.51l-6.62,5.24L259.44,717.43z M298.25,782.06l-27.33-27.33l-0.01,0.01l-22.87-22.87l5.88-7.44l51.77,51.75
		L298.25,782.06z"/>
	
		<linearGradient id="SVGID_00000040549309660720005710000010671177040270084498_" gradientUnits="userSpaceOnUse" x1="134.2379" y1="784.0158" x2="5215.7275" y2="784.0158">
		<stop  offset="0" style="stop-color:#EC673E"/>
		<stop  offset="0.5823" style="stop-color:#E53E22"/>
		<stop  offset="1" style="stop-color:#E12314"/>
	</linearGradient>
	<path style="fill:url(#SVGID_00000040549309660720005710000010671177040270084498_);" d="M349.16,769.33
		c-0.03-0.08-0.07-0.15-0.1-0.23c-0.02-0.05-0.04-0.1-0.05-0.15c-0.01-0.04-0.03-0.08-0.04-0.12c0.03,0.21,0.05,0.41,0.08,0.63
		c-0.02-0.28-0.07-0.54-0.13-0.8c0-0.01-0.01-0.02-0.01-0.03c0-0.02,0-0.04-0.01-0.06c-0.54-1.95-2.39-3.33-4.49-3.21
		c-0.3,0.02-0.6,0.07-0.88,0.14c-0.37,0.1-0.71,0.26-1.03,0.44c-1.34,0.77-2.21,2.21-2.2,3.84c-0.02-0.13-0.03-0.24-0.05-0.36
		c0,0.04-0.01,0.09-0.02,0.13c2.11,12.98,3.53,39.54-12.51,66c-3.38,5.57-7.15,10.42-11.1,14.72L179.65,714.7
		c29.9-27.37,67.22-26.1,80.72-24.55c0.01,0,0.01,0,0.02,0c0.07,0,0.13,0.01,0.2,0.02c0.03,0,0.07-0.01,0.1-0.01
		c0.01,0,0.01,0,0.02,0c0.04,0,0.07-0.01,0.11-0.01c0.07,0,0.13,0.01,0.2,0.02c0,0,0.01,0,0.01,0c-0.25-0.04-0.49-0.07-0.75-0.11
		c2.5,0.54,4.97-0.96,5.51-3.36c0.07-0.3,0.1-0.6,0.11-0.9c0.01-0.39-0.06-0.76-0.16-1.13c-0.38-1.46-1.52-2.68-3.09-3.17
		c-14.13-1.77-57.61-3.99-91.31,28.82c-26.12,25.43-31.15,57.24-31.97,72.36c-0.26,2.4,1.5,4.56,3.94,4.82
		c0.31,0.03,0.61,0.03,0.9,0.01c0.39-0.03,0.75-0.13,1.1-0.26c1.47-0.53,2.6-1.8,2.86-3.41c0.6-12.75,4.5-39.92,25.23-62.86
		l136.94,135.53c-14.9,13.41-31.17,19.53-40.43,22.11c0.19-0.04,0.37-0.08,0.57-0.11c-2.46,0.34-4.2,2.58-3.88,5.02
		c0.04,0.31,0.11,0.6,0.21,0.88c0.13,0.37,0.31,0.7,0.53,1.01c0.85,1.26,2.32,2.02,3.93,1.95c0.18-0.04,0.37-0.08,0.56-0.1
		c14.17-3.89,44.29-15.52,63.46-47.13C352.34,812.05,351.34,783.89,349.16,769.33z"/>
</g>
</svg>
